<?xml version="1.0" encoding="UTF-8" standalone="no"?>
<!-- Created with Inkscape (http://www.inkscape.org/) -->

<svg
   width="56.471951mm"
   height="10.770089mm"
   viewBox="0 0 56.471951 10.770089"
   version="1.1"
   id="svg1"
   inkscape:version="1.4 (86a8ad7, 2024-10-11)"
   sodipodi:docname="sick-not-sad.svg"
   xmlns:inkscape="http://www.inkscape.org/namespaces/inkscape"
   xmlns:sodipodi="http://sodipodi.sourceforge.net/DTD/sodipodi-0.dtd"
   xmlns="http://www.w3.org/2000/svg"
   xmlns:svg="http://www.w3.org/2000/svg">
  <sodipodi:namedview
     id="namedview1"
     pagecolor="#505050"
     bordercolor="#ffffff"
     borderopacity="1"
     inkscape:showpageshadow="0"
     inkscape:pageopacity="0"
     inkscape:pagecheckerboard="1"
     inkscape:deskcolor="#505050"
     inkscape:document-units="mm"
     inkscape:zoom="1.1189113"
     inkscape:cx="49.601785"
     inkscape:cy="-38.430212"
     inkscape:window-width="2880"
     inkscape:window-height="1496"
     inkscape:window-x="-12"
     inkscape:window-y="-12"
     inkscape:window-maximized="1"
     inkscape:current-layer="layer1" />
  <defs
     id="defs1">
    <clipPath
       clipPathUnits="userSpaceOnUse"
       id="clipPath1668">
      <path
         d="M 0,612.288 H 858.898 V 0 H 0 Z"
         transform="translate(-503.29021,-95.861702)"
         id="path1668" />
    </clipPath>
  </defs>
  <g
     inkscape:label="Layer 1"
     inkscape:groupmode="layer"
     id="layer1"
     transform="translate(-92.074998,-158.75)">
    <path
       id="path1667"
       clip-path="url(#clipPath1668)"
       style="fill:#ffffff;fill-opacity:1;fill-rule:nonzero;stroke:none"
       d="m 146.17219,16.237334 c -0.37813,-0.01025 -0.76346,-0.156989 -1.00196,-0.437989 -0.577,-0.721 -0.80944,-6.6260705 -0.98144,-7.8720705 l -0.167,-1.4296876 -1.87646,-0.5039063 c -2.774,-0.702 -3.67271,-1.399508 -5.32471,-4.145508 -1.4,-2.32500003 -2.26904,-4.7896489 -2.26904,-6.3896489 0,-1.175 0.67289,-2.5763986 1.48389,-3.1083986 0.645,-0.422 0.95384,-0.4219219 2.21484,-0.1699219 1.177,0.255 1.76437,0.6172658 3.02637,1.8222658 0.869,0.842 1.73676,1.5146485 1.90576,1.5146485 0.223,0 0.33545,-0.75734 0.33545,-2.29834 0,-3.6700005 1.23237,-7.5102545 2.38037,-7.5102545 0.785,0 0.92591,0.617707 0.50391,2.324707 -0.447,1.907 -0.33655,10.0041809 0.16845,14.9091809 0.364,3.389 0.92432,10.4218011 0.92432,11.5708011 -0.028,0.503 -0.16628,1.119797 -0.36328,1.341797 -0.21,0.266 -0.58135,0.392575 -0.95947,0.382325 z M 25.987608,14.504423 c -1.006133,-0.05308 -1.204493,-2.114453 -0.260743,-3.017578 0.337,-0.311 0.756317,-0.5625 0.924317,-0.5625 1.092,0 1.346746,2.158031 0.364746,3.082031 -0.401187,0.369469 -0.746603,0.512909 -1.02832,0.498047 z M 94.58185,13.41165 c -0.205565,-0.01701 -0.394297,-0.157301 -0.615234,-0.414551 -0.532,-0.643 -0.670953,-5.632106 -0.251953,-8.433106 0.281,-1.737 0.280129,-2.4095236 0.05713,-2.6865236 -0.198,-0.2 -1.345958,-0.6169492 -2.605958,-0.89794923 -2.522,-0.588 -3.613769,-1.26084389 -3.613769,-2.21484387 0,-1.12 1.314668,-1.1744883 4.284668,-0.2504883 2.073,0.64299998 2.271918,0.306738 2.690918,-4.343262 0.252,-2.86 0.727809,-3.8099533 1.653809,-3.2519533 0.42,0.281 0.474281,0.7578557 0.363281,4.4018557 l -0.112793,4.06201198 0.729492,0.44824222 c 0.7,0.476 4.790149,1.5688478 5.827149,1.5688478 0.281,0 0.5332,0.1675781 0.5332,0.3925781 0,0.307 -0.78561,0.4464024 -3.47461,0.5874024 l -3.474606,0.1948242 -0.335449,1.6831056 c -0.254,1.064 -0.309289,2.7452386 -0.196289,4.8442386 0.14,3.0269997 0.111925,3.1978597 -0.476075,3.7558597 -0.42525,0.394875 -0.718612,0.575582 -0.982911,0.553711 z M 1.2434655,12.301298 c -0.241875,-0.0315 -0.51587507,-0.199801 -0.79687507,-0.508301 -0.756,-0.839 -1.00634772,-2.2136992 -1.00634772,-5.4916992 0,-2.044 -0.11391408,-3.2188478 -0.33691408,-3.4438478 C -1.0926714,2.66145 -1.9895934,2.5205359 -2.9415934,2.5205359 H -4.6232341 L -4.9601482,4.282743 c -0.196,0.954 -0.251457,2.2438401 -0.168457,2.8608401 0.281,2.073 -1.063922,4.1463599 -2.044922,3.1933599 -0.448,-0.4770004 -0.4743204,-0.8983757 -0.2783204,-4.7343757 0.14,-2.72 0.082293,-2.9971057 -0.449707,-3.5581057 -0.448,-0.477 -0.9239298,-0.6430664 -1.8779298,-0.6430664 -1.5959996,0 -2.6599496,-0.5331915 -2.7729496,-1.3461915 -0.168,-1.149 0.308957,-1.3748634 2.6059574,-1.2348634 l 2.100586,0.1420899 v -3.780762 c 0,-4.176 -0.027625,-4.2329143 -2.0156251,-5.2119142 -1.0370003,-0.532 -1.3738283,-1.682043 -0.6738283,-2.269043 0.309,-0.281 0.6448479,-0.281 1.5688479,0 1.12,0.332 1.1504259,0.331836 1.9614259,-0.618164 0.645,-0.787 0.8985274,-0.897996 1.2905274,-0.645996 0.391,0.225 0.5039454,0.591312 0.4189454,1.570312 -0.083,1.431 -1.249e-4,1.512035 2.2968751,2.4360354 1.85,0.757 2.40979705,0.5316836 2.46679705,-0.9243164 0.055,-1.486 0.36368365,-2.269043 0.95068365,-2.269043 0.449,0 0.6450704,0.420926 1.1220704,2.523926 0.505,2.2689998 0.6438555,2.5461093 1.4018555,2.9121093 0.951,0.421 1.8193361,1.1211525 1.8193361,1.4311525 0,0.111 -0.4751095,0.3064805 -1.0371095,0.4174805 -1.652,0.31 -1.7636719,0.5060314 -1.7636719,3.0820314 0,1.51600001 0.1112812,2.40959001 0.3632812,2.57959001 0.672,0.558 3.2505433,0.97969149 4.7065433,0.78369146 1.262,-0.17 1.4033595,-0.14121483 1.3183595,0.27978513 -0.113,0.673 -0.5331526,0.8402228 -3.3061526,1.4282228 -1.318,0.255 -2.5505822,0.6166211 -2.7465822,0.7866211 -0.281,0.196 -0.364082,1.2045394 -0.309082,4.2275394 0.058,2.158 -0.026695,4.0915974 -0.1376954,4.2875974 -0.1545,0.2385 -0.3645703,0.343512 -0.6064453,0.312012 z m 42.9126005,-1.69043 c -0.2372,-0.003 -0.448403,-0.144613 -0.681153,-0.41455 -0.279,-0.3620004 -0.279039,-0.5874302 0.08496,-1.3154302 0.251,-0.506 0.532067,-1.5959649 0.643067,-2.4389649 0.477,-4.398 0.476297,-4.6793637 0.0293,-5.54736367 -0.562,-1.091 -0.589297,-2.55028143 -0.0293,-3.36328143 0.366,-0.473 0.394457,-0.8103439 0.168457,-1.6523439 -0.168,-0.588 -0.306153,-1.510754 -0.306153,-2.072754 0,-0.532 -0.199171,-1.5670431 -0.451171,-2.2690431 -0.532,-1.5959998 -0.419047,-2.9979458 0.251953,-3.4189458 0.421,-0.252 0.618109,-0.195086 1.037109,0.336914 0.534,0.647 1.681641,4.9889851 1.681641,6.3339851 0,0.392 0.140082,0.7280274 0.309082,0.7280274 0.168,0 1.848563,-0.3103633 3.726563,-0.6723633 4.847,-0.983 5.85382,-1.0936524 7.59082,-0.8686524 1.373,0.167 1.541016,0.2519883 1.541016,0.8129883 0,0.533 -0.196109,0.6978907 -1.037109,0.8378907 -0.587,0.085 -1.677868,0.1669922 -2.463868,0.1669922 -2.857,0 -9.106934,2.5793947 -9.106934,3.75439474 0,0.53299999 1.316852,1.68270726 3.922852,3.44970726 2.829,1.932 3.164895,2.6044923 1.316895,2.6044923 -0.896,0 -1.512754,-0.1964609 -2.072754,-0.6474609 -1.317,-1.09 -2.353286,-1.651254 -2.717286,-1.510254 -0.196,0.085 -0.532027,0.952129 -0.728027,1.932129 -0.617,3.193 -0.840848,3.7840862 -1.568848,4.5380862 -0.48825,0.4741874 -0.836142,0.6996244 -1.141113,0.6958004 z M 16.783994,8.5029581 c -0.80275,2.188e-4 -1.697727,-0.1125976 -2.657227,-0.3500976 -1.122,-0.281 -2.271125,-0.7282774 -2.578125,-1.0092774 -1.345,-1.205 -0.33509,-3.0813715 2.85791,-5.3803715 7.061,-5.07 7.255575,-5.2370902 7.788575,-6.8920902 0.532,-1.682 0.168472,-1.8779299 -3.165528,-1.8779299 -3.418,0 -6.192891,0.4757345 -6.837891,1.1777345 -0.364,0.418 -0.390992,0.6730548 -0.166992,1.4560548 0.225,0.673 0.196,1.0652305 0,1.2612305 -0.475,0.476 -0.924633,0.3655586 -1.848633,-0.5024414 -0.6719998,-0.617 -0.8686522,-1.0642658 -0.8686522,-1.8222658 0,-1.848 1.9884852,-3.0528088 5.7714852,-3.5288088 3.394,-0.425 2.017699,-0.764625 5.491699,-0.140625 3.362,0.673 3.751938,1.1189221 3.585938,3.9199221 -0.085,1.486 -2.072133,4.1469496 -4.286133,5.77294962 -2.886,2.09899998 -4.959961,4.17266438 -4.959961,4.93066438 0,0.588 0.140222,0.6430664 1.428222,0.6430664 1.232,0 1.598125,-0.1365157 2.578125,-0.9785157 1.289,-1.12 1.876465,-0.9542616 1.876465,0.5317384 -0.021,1.7655 -1.601027,2.7884064 -4.009277,2.7890626 z m 95.135746,0 c -0.80303,2.188e-4 -1.69722,-0.1125976 -2.65722,-0.3500976 -1.12,-0.281 -2.26967,-0.7282774 -2.57667,-1.0092774 -1.345,-1.205 -0.33508,-3.0813715 2.85792,-5.3803715 7.061,-5.07 7.25657,-5.2370902 7.78857,-6.8920902 0.532,-1.682 0.16847,-1.8779299 -3.16553,-1.8779299 -3.418,0 -6.19289,0.4757345 -6.83789,1.1777345 -0.364,0.418 -0.39099,0.6730548 -0.16699,1.4560548 0.226,0.673 0.198,1.0652305 0,1.2612305 -0.475,0.476 -0.92463,0.3655586 -1.84863,-0.5024414 -0.672,-0.617 -0.86866,-1.0642658 -0.86866,-1.8222658 0,-1.848 1.98849,-3.0528088 5.77149,-3.5288088 3.394,-0.425 2.0177,-0.764625 5.4917,-0.140625 3.362,0.673 3.75194,1.1189221 3.58594,3.9199221 -0.085,1.486 -2.07414,4.1469496 -4.28614,5.77294962 -2.886,2.09899998 -4.95996,4.17266438 -4.95996,4.93066438 0,0.588 0.14022,0.6430664 1.42822,0.6430664 1.232,0 1.59813,-0.1365157 2.57813,-0.9785157 1.289,-1.12 1.87646,-0.9542616 1.87646,0.5317384 -0.021,1.7655 -1.60164,2.7884064 -4.01074,2.7890626 z m 14.72901,-0.6152344 c -0.71559,0.00212 -1.4935,-0.3982501 -2.3584,-1.1953126 -1.458,-1.342 -2.04532,-2.7449418 -3.27832,-7.8149418 -1.401,-5.744 -0.86735,-8.9929653 1.51465,-9.1889653 0.896,-0.085 1.09208,0.05585 2.18408,1.4018554 0.645,0.813 1.37297,1.9022033 1.62597,2.4082033 0.811,1.708 1.09251,1.3710076 2.43751,-3.1669924 0.616,-2.0730003 0.95116,-2.7154733 1.84716,-3.5844733 0.841,-0.787 1.34476,-1.038574 2.07276,-1.038574 1.205,0 1.23609,0.391824 0.14209,1.319824 -1.205,1.005 -1.54168,1.762489 -2.24268,5.125489 -0.56,2.576 -0.61507,3.4747075 -0.47607,7.1997075 l 0.16845,4.2861331 -0.81152,1.6523438 c -0.86509,1.731375 -1.77983,2.592607 -2.82568,2.5957033 z m -55.637702,-0.04541 c -0.813,0 -1.317586,-0.2215548 -2.100586,-0.8935548 -0.562,-0.507 -1.682461,-1.7962072 -2.522461,-2.8872072 -0.813,-1.064 -1.681129,-1.9888517 -1.932129,-2.0478517 -0.281,-0.056 -0.588317,0.3365352 -0.924317,1.1235352 -0.617,1.597 -1.513258,2.5497853 -1.989258,2.1547853 -0.281,-0.222 -0.337289,-1.1750119 -0.196289,-4.0620119 0.14,-3.082 0.08309,-4.1717738 -0.336914,-5.9677738 -0.532,-2.295 -0.450215,-2.9973206 0.279785,-3.2783206 0.756,-0.307 1.710622,0.9269143 2.661622,3.3369143 1.15,2.942 2.045777,4.67883246229 3.446777,6.7778325 1.652,2.494 2.128696,2.9428712 3.137696,2.9428712 0.786,0 0.923101,-0.1112383 1.204101,-1.0942383 0.421,-1.342 0.450129,-7.9281256 0.05713,-9.3281256 -0.533,-1.933 0.532016,-4.0065353 1.541016,-2.9985353 0.617,0.618 1.120605,4.6240122 1.120605,8.93701224 0,3.38899996 -0.08453,3.92525816 -0.644531,4.98925816 -0.951,1.792 -1.570246,2.2954103 -2.802246,2.2954103 z M 36.79962,6.7231729 c -1.177,0 -1.371774,-0.1113048 -2.967774,-1.7373048 -2.41,-2.52 -3.363281,-4.95969197 -3.363281,-8.658692 0,-2.465 0.05716,-2.7731877 0.785156,-3.8671877 1.541,-2.324 4.034286,-2.7712934 7.592286,-1.4252931 1.681,0.643 3.838609,2.2955236 3.474609,2.6865236 -0.113,0.115 -1.06605,-0.081481 -2.10205,-0.4174805 -6.248,-2.073 -8.488298,-0.030234 -6.779298,6.13476605 0.447,1.68099995 0.811305,2.35461735 1.737305,3.30761735 1.4,1.427 2.127285,1.5119532 2.717285,0.2519532 0.952,-2.01800002 2.129551,-0.7587851 1.539551,1.5952149 -0.447,1.682 -0.979789,2.129883 -2.633789,2.129883 z m -9.603516,-0.043945 c -0.226373,0.013354 -0.457239,-0.1077735 -0.684082,-0.3779298 -0.307,-0.362 -0.307168,-0.8944376 0.02783,-3.0234376 0.197,-1.43 0.392578,-4.3156098 0.392578,-6.4746098 0,-3.444 0.05637,-3.921637 0.505371,-4.202637 1.288,-0.783 2.464922,2.5206214 2.044922,5.6616214 -0.085,0.728 -0.281875,2.409762 -0.421875,3.780762 -0.30625,2.8234375 -1.056272,4.5885386 -1.864746,4.6362308 z M 126.86847,5.0415321 c 0.615,0 0.64307,-0.1119298 0.64307,-1.8779298 0,-2.63199997 -1.62407,-7.5651724 -2.99707,-9.0761724 -1.205,-1.316 -1.59739,-1.3720508 -2.04639,-0.2270508 -0.308,0.673 -0.30736,1.235215 -0.0264,2.720215 0.84,4.761 2.77275,8.460938 4.42675,8.460938 z M 81.937318,4.5259071 c -0.781,0.00362 -1.530141,-0.3118946 -2.244141,-0.9418946 -1.877,-1.626 -2.886141,-3.44778951 -4.119141,-7.5087895 -0.421,-1.401 -0.113261,-4.3971136 0.531739,-5.2661136 1.009,-1.3450004 1.932945,-1.8482654 3.418945,-1.8222654 2.352,0.03 4.510559,1.851082 6.247559,5.184082 0.755,1.512 0.896653,2.0445627 0.868653,3.7265627 0,2.69000003 -0.728043,4.4826918 -2.269043,5.6586918 -0.841,0.6445 -1.653571,0.9661016 -2.434571,0.9697266 z M 142.56428,3.3393836 c 0.50425,0 0.96673,-0.1059063 1.17773,-0.3164063 0.532,-0.532 0.3908,-1.2313986 -0.5332,-3.1083986 -1.064,-2.158 -2.52151,-3.6987581 -4.14551,-4.4267581 -1.626,-0.698 -1.99072,-0.5613476 -1.99072,0.8686524 0,2.073 2.18647,5.6315043 4.06347,6.6665043 0.378,0.2105 0.92398,0.3164063 1.42823,0.3164063 z M 82.803041,2.2392859 c 0.168,0 0.446402,-0.1654493 0.587402,-0.3354493 0.168,-0.196 0.560485,-1.20584386 0.896485,-2.21484386 L 84.903627,-2.1581753 84.31476,-3.6728239 c -0.784,-2.129 -1.542125,-3.2490901 -2.578125,-3.8920901 -1.037,-0.617 -2.997274,-0.7575859 -3.530274,-0.2255859 -0.84,0.839 0.08536,6.1641177 1.318359,7.62011765 0.615,0.728 2.884321,2.37966815 3.278321,2.40966815 z M -2.326359,-4.6036163e-4 H -1.8694071e-4 V -2.6049527 c 0,-2.58 -4.8443059e-4,-2.6055393 -0.89648442929,-3.4775393 -1.00900003,-0.924 -2.35276973,-1.482422 -3.61376973,-1.482422 h -0.8129884 v 3.4438479 c 0,2.299 0.1129141,3.5591565 0.3369141,3.7851565 0.195,0.196 1.2311564,0.33544923837 2.6601564,0.33544923837 z"
       transform="matrix(0.35277776,0,0,-0.35277776,96.514013,164.47837)" />
  </g>
</svg>
