<svg xmlns="http://www.w3.org/2000/svg" xml:space="preserve" width="310.553" height="204.902" viewBox="0 0 310.553 204.902"><defs><clipPath id="a" clipPathUnits="userSpaceOnUse"><path d="M-236.52 186.485h858.898v-612.288H-236.52Z"/></clipPath></defs><path d="M-61.767 104.914c-.307-.203-.474-.481-.341-.934.307.202.474.482.341.934m3.289-.284-.55-.14q.067-.266.137-.53l.548.14zm-7.497-.445c-2.593-1.656-1.67-.944-4.774-2.027.87-.17 1.735-.43 2.591-.65-2.096-.123-3.697-1.428-5.615-.528.284-.164.433-.302.53-.43a73 73 0 0 1-4.31-.105c1.339.552 2.662 1.026 4.626 1.269-3.356.64-4.944-.713-6.934-1.421a74 74 0 0 1-6.458-.844l.003.208c-1.008.064-1.994-.297-2.706-.724a76 76 0 0 1-2.298-.525.6.6 0 0 1-.103.18c1.045.796 3.362 2.835 4.426 1.765-.204.07-.675.004-.734-.202 5.824.609 1.45 2.258 4.298 3.21-1.555-.143-2.854.3-4.4-.474-.763-.168-3.65-1.624-4.975-2.61 1.865 1.286 3.147.95 4.902.832-1.423-.21-1.408-1.14-2.715-.98l.312.357-1.338-.949c-.49.827-4.173-1.005-2.257.775-1.961-.89-.44-.99-2.143-1.947 1.225.338 2.465.616 3.69.919l.233-.945c-.073-.072-.14-.12-.208-.178a74 74 0 0 1-8.52-2.796c-.33.155-.728.097-1.431-.565a73 73 0 0 1-10.854-5.691c.08.592.926.925.5 1.633 4.492 1.408 1.785 3.158 6.925 5.16 1.185-1.784 3.524 3.214 5.393 1.647-2.066-.582-3.948-3.036-3.496-3.079 1.614 1.022 4.057 2.13 5.36 2.445-1.355.214-1.499 1.453-.969 2.471-2.68-1.739-8.53-2.991-12.498-5.38l1.133-.825c-2.741-2.912-.27 1.293-2.874-.331l-.553-1.576-.222-.02-1.1-2.25c1.22.962.087 1.304 1.8 1.876 1.484.545.5-.836.592-1.69-1.08-.248-3.799-2.735-2.552-.64-.467-.713-.932-1.41-1.386-2.11-.3-.22-.588-.453-.885-.677.112.292.284.59.367.814-.715-.656-1.365-1.384-2.045-2.074l-.043.207a25 25 0 0 0-.512-.693 73 73 0 0 1-3.08-2.676c.291.474.596.94.945 1.293-1.447-.858-1.684-1.634-2.273-2.527q-.23-.218-.457-.44c-.033.7-2.001-1.16-2.301-.868-.151.402-.565 1.664 1.195 2.848 2.136 2.193 1.082-.596 1.544.214 1.437-.3 2.81 3.145 4.47 4.08.22.04-.134-.464-.306-.714 1.102 1.124 3.672 3.194 3.345 4.018-.898-1.002-1.814-1.964-2.643-3.013-.826-.37.41 1.397-.85.949-.532-.776-1.302-1.54-2.277-2.23l-.097.425c-2.244-1.177-4.778-4.121-6.265-6.53.498-.809.748-1.65.98-2.541-.39-.433-.787-.86-1.166-1.301-.17.134-.413.165-.744.04l-.172-.764c-.543-.214-1.1-.426-1.626-.665.364-.494.217-1.173-.133-1.94a74 74 0 0 1-2.546-3.565c-.007 1.365.086 2.729 1.613 3.598l-.883.312c.965 1.64 2.573 2.344 2.515 3.693-.388-.628-.793-1.239-1.144-1.887l-.375.315c-.858-1.324-1.343-3.37-2.535-4.314-.17-1.391.047-2.866-1.715-5.682l-.117.186c.025-.153-.011-.302-.013-.453a74 74 0 0 1-2.171-4.075c-.773-.957-1.447-1.847-1.42-2.638.04-.052.079-.082.119-.12a80 80 0 0 1-.416-.95c-.121.653-.122 1.457-.059 1.899-.916-1.092-1.89-2.191-2.77-3.35-.203-.833-.413-1.6-.622-2.344a1.2 1.2 0 0 1-.557.069c-1.026.346.034.33-.01.391-.868.496-.493-.116-.81-.082-1.462.223-1.445.861-2.477 1.144-.291-.06-.692-.053-1.141-.016.325.161-.158.542-.443.488.113-.215.426-.106.438-.487q-.482.042-1.024.118c.036.042.034.11-.096.193-.061-.079-.074-.132-.07-.17q-.28.04-.566.08c.076.204-.283.245-.135.018a20 20 0 0 1-1.473.169c.19.144-.001.28-.085.435-.924-.59-.595-.336-1.701-.722.31-.06.618-.154.923-.232-.747-.044-1.317-.508-2-.187a.6.6 0 0 0 .188-.154 26 26 0 0 1-1.535-.038c.477.197.949.366 1.649.452-1.196.228-1.762-.253-2.471-.505a26 26 0 0 1-2.3-.302v.075c-.359.022-.71-.106-.964-.258q-.41-.087-.817-.187a.2.2 0 0 1-.038.064c.372.284 1.198 1.011 1.577.63-.073.025-.24 0-.262-.073 2.075.217.517.805 1.53 1.144-.552-.051-1.015.106-1.565-.17-.2-.043-.805-.39-1.3-.681.434.154.807.08 1.274.048-.507-.074-.502-.406-.967-.349l.11.128-.476-.34c-.175.295-1.488-.357-.805.277-.698-.317-.157-.352-.764-.693.437.121.88.22 1.315.328l.084-.338c-.026-.026-.05-.042-.075-.063a26 26 0 0 1-3.035-.996c-.118.056-.26.035-.51-.201a26 26 0 0 1-3.867-2.027c.028.21.33.328.178.581 1.6.501.636 1.126 2.467 1.839.422-.636 1.256 1.145 1.922.587-.736-.208-1.407-1.082-1.246-1.097.575.364 1.446.758 1.91.87-.483.076-.533.517-.344.88-.955-.62-3.04-1.065-4.454-1.916l.405-.294c-.977-1.038-.096.46-1.024-.119l-.198-.56-.08-.008-.39-.8c.435.342.03.464.64.668.529.194.178-.298.21-.602-.384-.088-1.353-.975-.909-.229q-.25-.38-.493-.751c-.107-.078-.21-.163-.315-.242.04.104.101.21.13.29-.255-.234-.486-.492-.728-.738l-.015.073a8 8 0 0 0-.183-.247q-.563-.462-1.097-.954c.104.17.212.336.337.462-.516-.306-.6-.582-.81-.9l-.163-.158c-.012.249-.713-.413-.82-.31-.054.144-.2.594.426 1.016.761.781.386-.212.55.076.513-.106 1.001 1.12 1.593 1.453.078.014-.048-.164-.11-.253.393.4 1.309 1.138 1.193 1.431-.32-.357-.647-.7-.942-1.074-.294-.132.146.499-.303.339a3.3 3.3 0 0 0-.812-.796l-.033.153c-.8-.42-1.704-1.469-2.233-2.328.177-.288.266-.587.349-.904q-.212-.23-.416-.464c-.06.048-.147.06-.265.016l-.059-.274c-.194-.076-.392-.15-.58-.236.13-.176.076-.419-.048-.693a26 26 0 0 1-.907-1.268c-.003.486.03.971.574 1.28l-.313.113c.343.585.916.834.895 1.314-.138-.223-.283-.44-.408-.671l-.134.111c-.305-.472-.477-1.2-.901-1.536-.062-.496.016-1.022-.611-2.025l-.044.066c.009-.054-.002-.107-.003-.161a26 26 0 0 1-.774-1.452c-.275-.34-.516-.658-.506-.94.014-.018.028-.028.042-.041q-.076-.17-.148-.34c-.043.233-.042.52-.02.677-.326-.39-.674-.781-.988-1.194-.444-1.82-.971-2.905-1.051-4.947l-.178.148c-.62-1.938-.227-2.526.169-3.312a25 25 0 0 1-.048-1.289c-.058.049-.117.095-.16.168-.084-.034.017-.226.16-.335v-.328l-.088-.022.05-.19.039.013q.004-.306.015-.611c-.064-.023-.139-.105-.219-.2.073-.164.165-.305.252-.458q.035-.565.096-1.132c-.178-.038-.28-.402-.444.297.036-1.258.232-1.938.769-2.47.869-1.859-.414-.72.372-2.604l-.26.233c.13-.401.296-.793.452-1.185l.098.47c.253-.437.492-.872.772-1.29l.028-.031q.146-.412.29-.815.01-.094.011-.164c-.094.023-.196-.038-.009-.183-.006-.02-.013-.037-.023-.041.214-.49.447-.968.688-1.44l-.32.092c.12.16-.314.148-.276.39-.242-.155.185-.306.22-.448.022.018.03.031.042.045.24-.274.47-.548.71-.814a.5.5 0 0 1-.156.069l-.012.046c-.079-.038-.103.015-.123.07-.199-.011-.032-.463.17-.258.082-.11.179-.198.283-.273.024-.13.12-.336-.083-.227.076-.082.385-.488.385-.327l-.155.245c.043-.022.074-.033.112-.051q.149-.248.304-.494a.16.16 0 0 1-.106-.02.4.4 0 0 0 .133-.022q.154-.245.312-.488c.042-.172.076-.359.144-.513-.242.23-.811.699-.555.223.216-.083 1.14-1.028.845-.342q.301-.426.617-.839c-.115-.032-.14-.188-.334-.206.272-.154.46-.163.6-.138q.286-.359.582-.706c.34-.952.506-1.716 1.607-2.518.19-.124-.805.643-.503.713.756-.356.872-.868 1.114-1.339a.3.3 0 0 1 0-.181c.04.002.063.014.087.026a1.55 1.55 0 0 1 .544-.545l.061.527c.304-.15.945-.62 1.284-.817-.004-.043.036-.13.088-.233-.092.067-.196.114-.26.098.002-.309.316-.111.317-.42a.2.2 0 0 1 .092.019c.099-.223.111-.383-.286-.172 1.342-1.296 1.84-.195 3.507-1.355q-.137.104-.249.185a26 26 0 0 1 3.092-1.434c.25-.269-.056-.275-.44-.256a.34.34 0 0 1-.165.007l-.146.004.095-.04c-.025-.038-.027-.095.013-.191.704-.197 1.103-.694 1.546-.866-.218.742 1.548-.413 2.184-.362l.67-.121.242-.065c.033-.079-.055-.147-.462-.164.34.02 1.387-.245 1.331-.029a25 25 0 0 1 2.416-.403.7.7 0 0 0 .196-.129c.089.03.107.061.1.094a27.8 27.8 0 0 1 10.55.872c-.515-.103-.993-.056-1.529-.109.69.584-.867-.119-.717.331.323.2.83.285 1.155.257.056.193-.296.273-.385.455q1.47.423 2.85 1a.6.6 0 0 1 .086-.106c.055.066.065.119.057.16.098.043.191.09.288.131a.17.17 0 0 0 .02-.098c.073.052.092.1.084.145.303.135.595.284.891.43l.084-.21c-1.001-.431-2.024-.827-3.099-1.371 1.714.084-.966-.611-.34-.948l.847.41-.038-.15q.541.17 1.07.379c-.294.143-.46.1-.485.345 1.437.397.535-.137 1.678-.029.315.133.625.281.936.423a32 32 0 0 1 1.021-1.53l.07.44c-.284.399-.542.81-.8 1.22.105.052.217.093.322.146l-.097-.122c.128.064.174.118.202.174q.032.018.065.037a36 36 0 0 1 1.132-1.825c.028-.035.05-.056.076-.088.27-.774.548-1.528.815-2.285q.025-.266.033-.46c-.265.066-.556-.11-.028-.516-.016-.06-.035-.104-.063-.117a73 73 0 0 1 1.936-4.037l-.901.258c.339.445-.884.411-.775 1.091-.682-.434.518-.857.615-1.254.062.05.087.085.123.125.669-.77 1.315-1.537 1.99-2.284q-.234.145-.439.19l-.033.134c-.221-.11-.286.038-.343.196-.558-.033-.092-1.304.474-.727.231-.309.502-.554.794-.764.068-.367.336-.944-.235-.637.214-.23 1.084-1.37 1.082-.917l-.434.685c.122-.064.211-.095.318-.145q.417-.698.848-1.384a.47.47 0 0 1-.295-.057 1.1 1.1 0 0 0 .372-.063c.289-.458.578-.914.876-1.365.118-.485.213-1.012.405-1.445-.682.643-2.277 1.966-1.557.63.607-.235 3.198-2.886 2.37-.96a73 73 0 0 1 1.732-2.356c-.321-.09-.393-.53-.936-.582.764-.43 1.289-.454 1.683-.384q.801-1.006 1.635-1.982c.954-2.672 1.42-4.818 4.511-7.069.532-.35-2.259 1.804-1.412 2 2.125-1 2.444-2.433 3.123-3.755a.84.84 0 0 1 .001-.51c.115.005.18.04.245.074a4.36 4.36 0 0 1 1.526-1.531l.173 1.48c.852-.422 2.651-1.74 3.605-2.296-.012-.119.1-.365.245-.652-.258.19-.548.323-.728.277.005-.866.882-.314.886-1.182.12.003.2.024.26.057.278-.627.316-1.075-.8-.482 3.768-3.638 5.16-.548 9.842-3.804l-.698.515a74 74 0 0 1 8.678-4.02c.701-.758-.158-.776-1.235-.723a.95.95 0 0 1-.461.02l-.412.014.265-.116c-.068-.104-.07-.263.04-.533 1.977-.554 3.095-1.949 4.339-2.432-.613 2.083 4.344-1.158 6.13-1.016l1.877-.337.687-.183c.09-.223-.162-.414-1.305-.46.958.05 3.896-.691 3.74-.085 2.24-.474 4.503-.878 6.782-1.131.203-.098.404-.213.547-.359.251.082.301.168.28.26 9.93-1.108 20.065-.239 29.618 2.447-1.45-.289-2.788-.154-4.29-.303 1.932 1.64-2.437-.333-2.016.93.905.56 2.329.796 3.243.718.158.542-.831.77-1.081 1.282a74 74 0 0 1 7.998 2.799c.057-.086.125-.179.242-.293.156.185.181.332.16.451.273.116.54.25.812.37a.5.5 0 0 0 .056-.276c.2.143.255.28.233.407 19.94 8.863 34.445 26.007 40.43 46.154.058.054.09.129.062.197l.031.095.015-.018c.377-1.057.56-1.907 1.784-2.799.211-.138-.894.715-.558.793.203-.095.361-.202.492-.314l.024-.09q.027.005.05.012c.35-.337.48-.726.67-1.095a.33.33 0 0 1 .002-.201c.045.002.069.015.095.028.135-.221.312-.429.605-.607l.069.588c.039-.02.095-.057.142-.084.367-.213.95-.632 1.285-.826-.004-.048.04-.145.096-.258-.102.074-.216.127-.287.109.002-.343.348-.124.35-.468.048.001.08.01.104.024.11-.248.125-.427-.316-.192C2.683-.154 3.235 1.07 5.088-.219l-.277.204a29 29 0 0 1 3.436-1.591c.277-.3-.063-.308-.489-.287a.4.4 0 0 1-.183.009l-.162.005.105-.045c-.028-.041-.027-.104.016-.21.783-.22 1.224-.774 1.717-.965-.243.825 1.72-.457 2.427-.401l.744-.135.271-.072c.035-.088-.064-.164-.517-.183.38.021 1.543-.272 1.481-.032a28 28 0 0 1 2.685-.448.8.8 0 0 0 .217-.142c.099.032.118.065.11.102a30.8 30.8 0 0 1 11.726.97c-.573-.114-1.102-.061-1.698-.12.766.65-.964-.133-.798.367.359.221.921.316 1.283.285.063.215-.329.305-.428.508 1.088.314 2.146.68 3.167 1.107a.6.6 0 0 1 .096-.115c.062.073.073.131.064.178.108.046.213.099.32.147a.2.2 0 0 0 .023-.11c.08.057.1.11.092.161 8.561 3.805 14.603 11.464 16.544 20.316.127-.032.112.169.054.242q.261 1.252.413 2.531c.012-.226.388-.026.063.233a.7.7 0 0 1-.05-.135 29 29 0 0 1-.609 10.072c-.119.101-.237.2-.344.245l-.066-.003.171-.776c-.019.005-.072-.003-.016-.018l.02.009.065-.299c-.036-.286-.108-.578-.16-.863a41 41 0 0 0-.071-.925c-.216.83-.52 1.607-.964 2.096q-.053.242-.111.485c.057.014.106.04.134.083.094.1.118.18.151.26-.162.054-.098.05-.205.102l.065-.006c-.021.002-.075.023-.122.034q.02.079.038.177a1 1 0 0 0 .158-.06c-.129.092.073.09-.026.18a.27.27 0 0 0 .171-.121c.014.025-.05.08.041.07l-.121.022c-.011.047.114-.021.193-.016-.004.089-.258.077-.39.118l.006.041q.009.004 0 .01l.005.033a1 1 0 0 1 .143-.015c-.247.058.054.038.008.107.082-.005.091-.038.181-.05-.06.042-.088.1-.227.116.001.06.053.098.032.135.054-.046.141-.014.258-.053-.11.037-.236.099-.369.157l.003.073c.034 0 .07-.004.129-.01.105.068-.142.026-.094.09l-.028-.03-.004.003q-.001.047.001.096c.041-.003.075-.008.07.002-.047.007-.066.016-.07.025v.004c.002.028.137.063.116.084l.02-.01.09.04.01.002-.035.002c.096.016.164.047.142.083l-.034.009-.01.007-.004.003-.003.003-.002.001-.146.242-.01.016-.002-.001-.044.003c-.029.006-.057.013-.085-.025.026.018.038.015.041-.02l-.06-.115c-.029.016.052.11-.012.053-.075-.163.041-.02.053-.049a.3.3 0 0 0-.073-.07.1.1 0 0 0 .026-.019l-.035.018.009.001-.025.006-.026.013q.021.037.029.069c-.005.07-.043.013-.085-.041l-.03.013c.015.042.018.075.02.107-.024-.05-.051-.068-.063-.07l.004-.009-.006-.006-.073.034v.001l.016.016a.06.06 0 0 0-.04-.007q-.013.008-.027.013l.004.01q-.004-.003-.007-.007l-.03.012c.013.025.02.044.005.04.035.068.07.061.082.023-.012.038.027.156.06.15.033.091-.045-.026-.042.023l-.04-.084c.032.071-.022.003-.056-.026a1 1 0 0 0-.063-.101q-.116.051-.231.1c.022.05.053.102.063.149-.014.06-.061-.053-.098-.132q-.014.007-.028.013l-.003.012q-.011.037-.022.073c.034.03.074.062.069.072-.085-.019-.017.056-.104.022l-.003.006.062.04q-.033-.008-.068-.02l-.009.02c.007 0 .014.005.021.005l.007.041v.015l-.036-.035-.018.048a27 27 0 0 1-.876 2.224h.01l-.017.016c-.12.27-.235.544-.362.809.006.006.008.012.018.019-.012-.008-.015-.005-.024-.008a27.4 27.4 0 0 1-2.918 4.746.16.16 0 0 1 .1.075c-.308.314-.494.457-.674.63-.128.156-.253.317-.384.47.33-.083.834-.404 1.097-.745l-.063-.037.085.015-.019.02.33.205c.694-.195.562-1.032 1.226-1.261l-.192.705c.026-.005.065-.044.101-.07-.213.23-.413.412-.533.41-.796.674-.723 1.423-.687 1.688-.233.453.483.191.625.39-.356.329-.6.35-.867.419l-.035.14q-.106-.026-.212-.054a1.6 1.6 0 0 0-.378.24c-.11.184-.004.188.092.15l-.51.242c.071.109-.879 1.103-.095.75.08-.091.255-.237.37-.37-.604.985-1.93 2.496-1.633 2.782-.452.46-.423.202-1.169.895-.56.014-.334-.525-1.339-.089l.611-.608c.177-.051.34-.07.525-.14l-.747.474c.54-.2.553-.01.861.136 1.141-.799 1.099-1.463 1.528-2.014-.468.1-.984.6-1.01.14-.328.664-.769.204-1.214.897l.18-.003c-.68.121-.55.462-1.122.54.073.04.041.115.01.188-1.043.455.159-.367-.978-.082-.225.157-.314.278-.34.381.034.007.072.013.101.024l.211-.081c-.1.066-.207.125-.309.189.06.183.317.302.232.478 1.717-.468.29.576 2.102-.1.282.426-.322.9-1.241 1.381.46-.529-.728-.412-.166-1.17-1.424.54-1.756-.387-2.997.744l.068.05c-.13-.004-.262-.018-.393-.03a30 30 0 0 1-1.099.526c.714.245 1.26-.257 1.79-.183-.818.964-1.6.165-2.777.655-.814.943 1.358-.14 1.543.306-.293-.016-.877.48-.746.59 1.1-.625.836.01 2.011-.804-.695.12.028-.191-.184-.341.25.074 1.465-.42 2.217-.964.365.21-.54.672-.996 1.078-1.162.141-1.933 1.271-2.92 1.137-1.14.385.04.368-.008.434-.965.552-.55-.127-.902-.09-1.625.247-1.606.958-2.753 1.272-.323-.068-.768-.06-1.267-.018.361.18-.175.602-.492.542.125-.24.473-.118.486-.542q-.536.047-1.138.132c.04.046.038.122-.107.215-.067-.089-.082-.147-.076-.189q-.313.043-.63.088c.084.227-.313.273-.15.022-.567.08-1.13.154-1.637.186.211.16 0 .312-.094.484-1.026-.656-.662-.374-1.89-.803.344-.067.687-.17 1.026-.258-.83-.048-1.464-.564-2.224-.208a.65.65 0 0 0 .21-.17 29 29 0 0 1-1.707-.042c.531.219 1.055.406 1.833.502-1.33.253-1.957-.282-2.745-.562a29 29 0 0 1-2.556-.334v.082c-.4.026-.79-.117-1.071-.286a34 34 0 0 1-.91-.208.2.2 0 0 1-.04.072c.413.315 1.33 1.121 1.751.697-.08.028-.266.003-.29-.079 2.306.241.575.893 1.702 1.27-.615-.057-1.131.12-1.743-.187-.303-.066-1.444-.642-1.969-1.033.74.509 1.246.376 1.941.33-.563-.083-.557-.452-1.075-.389l.123.142-.529-.376c-.194.327-1.652-.399-.893.306-.777-.352-.176-.393-.85-.77.485.133.977.244 1.462.364l.092-.375c-.029-.029-.055-.047-.082-.069a30 30 0 0 1-3.373-1.109c-.131.062-.29.038-.567-.224a29 29 0 0 1-4.298-2.251c.032.234.368.366.2.646 1.777.558.705 1.25 2.74 2.043.469-.707 1.396 1.273 2.136.652-.818-.23-1.564-1.203-1.386-1.22.64.405 1.608.844 2.124.968-.536.085-.594.576-.384.979-1.06-.69-3.377-1.184-4.948-2.129l.449-.328c-1.085-1.153-.107.511-1.138-.132l-.219-.622-.087-.01-.435-.89c.483.381.033.516.711.743.588.216.198-.33.235-.668-.428-.098-1.505-1.084-1.01-.255q-.279-.421-.549-.835c-.119-.087-.233-.18-.351-.268.045.115.112.235.145.324-.283-.26-.54-.55-.809-.822l-.016.082a10 10 0 0 0-.204-.275 28 28 0 0 1-1.218-1.06c.115.187.235.372.373.512-.573-.34-.666-.646-.9-1l-.18-.174c-.014.276-.793-.459-.912-.344-.056.15-.176.596.376 1.036a.95.95 0 0 1 .427-.236q-.077.244-.153.49c.591.511.267-.371.434-.077.569-.118 1.114 1.244 1.77 1.614.088.016-.053-.183-.12-.282.435.446 1.454 1.265 1.324 1.592-.355-.397-.718-.778-1.046-1.194-.327-.146.163.553-.337.375a3.6 3.6 0 0 0-.901-.883l-.038.17c-.393-.206-.805-.559-1.197-.96-.316 1.021-.626 2.043-.98 3.05l.419-.082c-.681.764-1.1 2.525-1.162 3.179.207-.03.465.134.733-.545-1.712 4.677-2.255.585-4.17 4.142.13-.217.245-.508.322-.942.47-.868.245-1.877-.126-1.63 1.372-1.588.66-1.906 2.002-1.686 1.04-1.006.616-2.6-.368-1.395.66-1.068 1.317-2.15 1.899-3.272-.143.73-.256 1.469-.443 2.19 1.06-.195.854-2.386 1.531-3.381a10 10 0 0 1-.942-1.255c.197-.32.297-.652.389-1.005l-.206-.229c-.098.065-.197.136-.29.176l-.162-.009.09-.414a.36.36 0 0 1-.188-.022l-.07-.303c-.214-.085-.433-.17-.642-.264.145-.196.086-.465-.053-.77-.288-.378-.562-.77-.83-1.162-.048.076-.104.135-.153.208.045.375.182.722.614.968l-.35.124c.38.65 1.019.928.996 1.462-.153-.248-.315-.49-.454-.747l-.148.125c-.313-.483-.51-1.193-.905-1.597l-.056.076.167.493a1.6 1.6 0 0 1-.176-.48c-.087.11-.163.244-.255.345-.086.408-.188.815-.284 1.223.144.036.27.1.341.21.24.25.3.454.383.657-.41.14-.248.125-.519.258l.163-.016c-.053.005-.19.06-.31.088q.056.197.099.445c.16-.048.318-.1.4-.15-.326.232.184.227-.066.455a.68.68 0 0 0 .432-.31c.035.066-.127.207.104.182l-.31.054c-.025.118.29-.052.49-.04-.01.224-.65.195-.983.297q.006.051.012.104c.018.006.015.014.003.026q.004.04.01.08c.115-.025.268-.032.363-.036-.623.147.134.095.018.27.206-.013.234-.094.46-.123-.152.104-.225.248-.577.291.003.15.136.248.085.341.135-.116.352-.04.65-.137-.279.095-.598.255-.933.401q.004.09.007.18a6 6 0 0 0 .326-.023c.265.17-.359.065-.238.23l-.07-.075c-.003.002-.01.002-.013.003q.005.122.007.245c.105-.008.188-.02.173.007-.116.017-.164.038-.172.061v.01c.005.072.346.159.293.212l.046-.027.23.104.026.002-.09.004c.242.04.414.12.36.211l-.085.024-.028.017-.01.009-.006.006-.003.003-.372.61-.025.042h-.003l-.111.002c-.073.016-.147.036-.217-.061.064.046.097.038.107-.048l-.154-.295c-.073.041.131.279-.03.135-.188-.41.104-.05.135-.122a.7.7 0 0 0-.186-.177.2.2 0 0 0 .066-.048l-.089.044c.008.002.015 0 .023.004l-.064.016-.066.031a.6.6 0 0 1 .073.176c-.012.178-.11.03-.215-.107q-.038.016-.075.035c.04.107.049.192.052.273-.062-.13-.13-.176-.16-.182l.009-.018-.012-.019q-.093.046-.188.088 0 .003.002.005l.042.04a.15.15 0 0 0-.1-.019l-.074.033.013.026-.02-.022-.073.034c.036.063.052.107.013.1.09.17.174.152.205.058-.031.094.07.396.155.378.083.234-.117-.063-.11.06l-.1-.212c.137.303-.138.094-.235-.116l.15.133c-.063-.15-.148-.25-.213-.341q-.292.13-.585.26c.056.121.132.254.157.371-.035.156-.15-.134-.243-.334l-.073.032q-.004.015-.01.03c-.02.06-.035.126-.055.186.085.077.188.156.177.183-.214-.05-.043.14-.263.053l-.006.017.154.103q-.084-.023-.173-.053l-.02.053c.018.002.035.011.05.01l.017.103.003.023v.016l-.093-.09q-.022.062-.045.122a69 69 0 0 1-2.212 5.617c.009-.003.016.003.025 0l-.044.04c-.302.684-.593 1.375-.916 2.044.016.016.022.03.047.048-.03-.02-.038-.01-.06-.019a69 69 0 0 1-7.37 11.989.4.4 0 0 1 .251.189c-.778.793-1.247 1.155-1.702 1.59-.323.395-.636.802-.968 1.19.836-.21 2.11-1.024 2.774-1.888l.837.517c1.753-.492 1.42-2.609 3.096-3.188l-.48 1.783c.063-.015.163-.111.252-.18-.537.58-1.043 1.043-1.348 1.04-2.01 1.7-1.826 3.595-1.734 4.264-.59 1.143 1.218.482 1.577.986-.9.829-1.513.882-2.188 1.057l-.091.355-.535-.138a4 4 0 0 0-.953.6c-.275.468-.01.477.231.383l-1.287.61c.178.277-2.218 2.786-.24 1.896.207-.23.645-.597.934-.934-1.523 2.488-4.873 6.306-4.124 7.03-1.14 1.159-1.07.507-2.954 2.257-1.415.037-.842-1.327-3.38-.224l1.541-1.535c.447-.128.86-.179 1.328-.355l-1.887 1.197c1.365-.505 1.398-.026 2.177.343 2.882-2.016 2.772-3.695 3.858-5.086-1.183.249-2.487 1.516-2.55.351-.832 1.681-1.947.518-3.07 2.268l.458-.007c-1.722.306-1.39 1.169-2.835 1.362.185.102.1.292.02.476-2.63 1.15.407-.926-2.464-.204-.57.396-.798.702-.863.961.087.02.185.031.26.059q.257-.097.53-.202c-.256.166-.524.315-.783.477.154.461.802.761.588 1.204 4.339-1.182.732 1.456 5.308-.253.713 1.076-.811 2.275-3.133 3.49 1.163-1.337-1.84-1.043-.42-2.957-3.596 1.366-4.432-.973-7.568 1.884l.17.123c-.329-.012-.66-.045-.993-.073-.916.46-1.84.907-2.773 1.33 1.803.617 3.183-.649 4.519-.463-2.065 2.435-4.042.415-7.015 1.65-2.055 2.383 3.43-.353 3.898.776-.74-.041-2.216 1.21-1.884 1.487 2.776-1.578 2.113.028 5.083-2.03-1.756.306.067-.48-.467-.858.629.187 3.701-1.068 5.601-2.439.921.53-1.368 1.7-2.518 2.724-2.937.358-4.881 3.212-7.371 2.875-2.879.972.097.925-.026 1.094-2.436 1.393-1.388-.321-2.277-.225-4.105.623-4.057 2.416-6.953 3.21-.816-.172-1.94-.15-3.2-.045.911.453-.442 1.52-1.243 1.367.318-.604 1.195-.296 1.227-1.365a54 54 0 0 0-2.872.33c.1.116.092.31-.273.543-.17-.224-.205-.372-.19-.478q-.79.112-1.592.226c.213.575-.794.689-.378.053-1.436.203-2.86.39-4.138.47.533.404-.001.788-.236 1.223m36.947-16.513-.231.061.264-.096zm10.846-16.58-.161-.09.212.036zm11.879-21.91c.003.007.005.002.008.01-.015.004.008.04.003.052.007-.013-.01-.044-.011-.063m.011.062c-.005.01.02.042.01.049l.159.145c.117.428-.144-.124-.16-.018-.023-.084-.025-.135-.009-.176M8.94 53.078c.102-.015.21-.022.35-.006-.038.05-.165.046-.35.006m27.486-3.66-.092.026.104-.038zm8.783-15.125c.007.013.016.018.022.034l-.06-.053c.016.034.015-.001.038.019m.213-.113c.001.003.003 0 .004.004-.006.002.003.017.002.022.002-.005-.006-.018-.006-.026m.006.026c-.002.004.006.016.002.018l.063.059c.046.169-.057-.05-.063-.008-.009-.033-.008-.052-.002-.069M-.038 2.898q-.248-.734-.513-1.475l-.022.082-.215-.055.054-.21.127.034a88 88 0 0 0-.495-1.332c.168.45.366.887.526 1.34l.057.014-.023.09c.177.501.338 1.007.504 1.512m-49.27-48.744a10 10 0 0 1 2.01.583zM-166.045 2.605c-.274.115-.538.249-.805.38-.04-.092.01-.217.315-.435.089.057.281.061.49.055m-.805.38c.053.123.261.186.285.31-.394.188-.793.368-1.176.579.308-.376-.414-.057-.55-.132q.707-.406 1.44-.757m2.178 49.075c.092-.014.191-.02.316-.006-.034.046-.15.042-.316.006m2.484 1.446a2 2 0 0 1-.473-.248c.126.094.293.142.473.248m26.72 16.321.02.21-.093-.274zm52.035 33.533c.37.04.766.113 1.188.265a7.4 7.4 0 0 1-1.188-.265m22.227.684c-.306-.014-.28-.504.671-.507-.258.393-.51.515-.67.507m-19.503-.12c.738-1.002-2.546-1.743-1.884-2.481 2.307.683.926 1.27 3.115 1.46zm22.638-.88c-.616-.027-.425-.514-.344-.935.308.201.476.484.344.935m11.361-3.287-.548-.14.137-.531.548.14zm-49.407-.5-1.817-.334 1.535-.051zm56.02-1.873c.42-.23.965-.64 1.738-.624.11.61-1.146.52-1.738.624m-57.803-.39a3 3 0 0 1-.554-.08c.257-.038.535-.055.888-.014-.051.068-.167.097-.334.094m-8.726-2.334-1.319-1.267.213-.005 1.31 1.262zm58.408-2.985c.92.145 1.858-.2 2.468-1.438l8.63-17.505c.456-.926-.444-1.945-1.573-2.502-1.128-.556-2.485-.65-2.941.277l-5.348 10.85-.438-6.114c-.063-.822-.541-1.31-1.091-1.581-.521-.257-1.158-.355-1.833.14l-5.23 3.679 5.49-11.14c.457-.926-.442-1.945-1.571-2.502-1.128-.556-2.484-.648-2.941.278l-8.63 17.505c-.813 1.65.016 2.813 1.144 3.37 1.621.798 2.401.967 4.614-.531l5.548-3.74.413 6.677c.16 2.668.77 3.184 2.39 3.983.288.142.592.246.899.294m22.173-.713c-.618-.028-.425-.512-.344-.933.308.2.474.48.344.933M-69.923 80.07c2.373-.049 4.525-1.336 6.059-4.446l3.779-7.669c2.453-4.977.241-8.369-3.752-10.337-3.993-1.969-8.001-1.643-10.454 3.334l-3.78 7.668c-2.453 4.977-.27 8.354 3.723 10.323 1.497.738 3 1.156 4.425 1.127m59.073-3.116c-.807-1.063 1.06-.678 0 0m-112.62-.108a2 2 0 0 1-.138-.396c-.183-.186-.352-.385-.532-.573a1.18 1.18 0 0 0-.946.286c.429.216.768.38.658-.048.3.235.636.486.958.73m113.371-.545c-.807-1.062 1.062-.677 0 0m-60.855-.91c-.461-.002-.948-.133-1.455-.382-1.619-.8-2.132-2.166-1.148-4.163l3.78-7.667c.984-1.997 2.38-2.425 4-1.626 1.622.799 2.163 2.181 1.179 4.177l-3.78 7.669c-.676 1.372-1.562 1.996-2.576 1.992m62.358-1.525-.548-.142.136-.529.548.14zm-5.786-.038c1.686-1.615 3.506-3.563 4.147-5.432l-1.272.113c-.487 2.252-1.78 2.979-3.022 4.66.871-1.32 1.603-2.73 2.384-4.089.497-2.309-.416-1.143-1.57.115.234-.346.406-.686.322-.873.417.074 3.779-3.62 1.677-.044 1.037.502 1.95-1.933 2.719-2.77-.18.846.846.031 1.078.455-.413.414-1.014.83-1.46 1.642.21.646 1.305-.348 1.678-1.424-.172 1.507 1.678-1.048 1.09.887-2.535 3.386-4.635 5.59-7.771 6.76m.666-4.633c-.236.34-.513.64-.76.827zm-113.803 4.582c.076-.21.128-.41.22-.627a150 150 0 0 1-2.791-3.86c-.088.027-.2.051-.299.076.081.205.175.429.302.702a72 72 0 0 0 2.568 3.709m41.302-1.745c2.386.016 4.431-1.056 5.564-3.353.856-1.736.333-2.497-1.201-3.253-1.214-.6-2.355-.768-2.927.246-.399.738-1.4 2.548-3.858 1.336-1.65-.813-2.148-2.21-1.178-4.178l3.78-7.667c.97-1.968 2.38-2.424 4.058-1.597 2.316 1.141 1.59 2.978 1.12 4.149-.44 1.113.401 1.888 1.558 2.458 1.562.77 2.485.721 3.34-1.014 1.898-3.849-.142-7.587-4.28-9.627-3.79-1.868-7.856-1.571-10.31 3.406l-3.78 7.667c-2.453 4.977-.211 8.383 3.578 10.25 1.552.766 3.105 1.167 4.536 1.177m-48.722-.49a4.1 4.1 0 0 1-.51-1.504zm117.686-1.238c-.09-.008-.153-.105-.182-.339.671-.268 1.507-1.58 1.915-.905-.479-.388-1.344 1.275-1.733 1.244m-119.38-.866c-.235-.348-.384-.62-.477-.886.147.288.305.553.478.886m6.193-.198c.062-.059.127-.13.187-.18-.148-.212-.294-.443-.442-.656.052.233.125.493.255.836m113.056-.07.434-1.134c.186.02.36.201.683-.106zm-119.724-.618c-1.302-2.571-1.883-2.934-3.182-6.14 1.481 2.262 1.93 2.794 2.46 2.353 1.395 2.091.202 2.309.722 3.787m124.6-2.74c-.113-.011-.208-.102-.282-.301 1.418-1.716 1.338-2.15 2.782-2.905.87-1.854 1.364-3.272 1.394-4.302.393-.477 1.012-.285 1.448-.938-.085.149-.167.287-.254.463l1.393.73c-.58.457-.676 1.095-1.038 1.732 1.047-.738 2.056-1.526 3.1-2.329.912 1.63-1.356 4.386-1.49 5.863-.388-2.125-1.195.872-.646-2.535l-2.044.895c-.318.918-.718 1.797-1.097 2.694-.437-.21-1.821 1.381-1.475-.054.202-.197.602-.591.785-.993-.876-.193-1.97 2.043-2.577 1.98M-34.8 65.48c.754-.014 1.397-.292 1.728-.964l9.115-18.49c3.453-7.005.217-11.84-5.526-14.67-5.783-2.852-11.548-2.453-15.001 4.552l-9.114 18.49c-.663 1.343.603 2.676 2.233 3.48 1.548.763 3.46.997 4.121-.347l9.114-18.491c1.365-2.77 3.473-3.351 5.917-2.146s3.268 3.23 1.903 6l-9.115 18.492c-.662 1.343.604 2.676 2.233 3.48.774.38 1.638.629 2.392.614m-66.55-.56c1.012.025 1.888-.253 2.305-1.1.385-.78.648-2.626-.624-3.254-1.042-.513-2.133.315-4.506-.854-2.055-1.013-2.48-2.267-2.038-3.164 1.426-2.893 10.328 2.178 13.922-5.114 2.054-4.166.128-7.921-4.068-9.99-3.789-1.868-7.886-1.585-8.827.325-.485.984-.33 2.858.77 3.4 1.36.67 3.283-1.043 5.974.284 1.331.656 2.55 1.904 1.865 3.294-1.726 3.501-10.598-1.629-13.936 5.142-2.14 4.34.838 7.859 4.454 9.642.959.472 3.024 1.35 4.71 1.39m-34.372-1.722c.706-.027.003-2.388.907-1.781-.262-.476-.496-.966-.747-1.447-.056.009-.11.001-.169.033.017-.086.022-.195.035-.291-.202-.392-.411-.78-.606-1.175.025.12.038.24.063.359-.253.597-.48.866-.665 1.08q.126.031.252.064l-.135.529-.433-.113a1.6 1.6 0 0 0-.082.36c.204.44.393.895.603 1.327.394.426.688.746.977 1.055m.347-2.301-.133-.035.034-.132.133.035zm-6.102-.49c-.506-.05-.96-1.902-.744-1.5.239.441.531 1.188.9 1.454a.22.22 0 0 1-.156.047m3.717-1.245a6 6 0 0 0-.228-.92c-.005.02.002.03-.006.052a1.5 1.5 0 0 1-.546-.202c.13.305.275.596.408.9.091.036.21.09.372.17zm21.201-1.425c.532-.012.981-.212 1.216-.69l9.072-18.401c.456-.927-.443-1.945-1.572-2.502-1.128-.556-2.484-.65-2.941.277l-9.072 18.401c-.471.955.458 1.917 1.586 2.473.565.278 1.18.454 1.711.442m-22.135-.004c.13-.002.266-.021.444-.054a1.8 1.8 0 0 0-.557-.578c-.018.037-.042.064-.054.112-.021-.005-.039-.002-.059-.003.074.177.153.348.226.523m162.157-1.487c-.121-.08-.188-.19-.135-.37.12.08.188.191.135.37m1.302-.113-.218-.055.054-.21.218.056zm-163.768-.064c.028-.003.056-.014.083-.016l.07-.27c.02.003.04.001.06.003-.011-1.27-.844-2.712-.503-3.927.046-.023.076-.012.117-.024-.324-.875-.61-1.765-.898-2.654a1.8 1.8 0 0 0-.413.135l.343-.343c-.05-.154-.107-.303-.156-.457-.113.093-.22.18-.4.236.017.445-.15.682-.29.962.155.094.07.287.667.113a4 4 0 0 0-.044-.335.58.58 0 0 1 .302.25c.056-.019.089-.027.154-.051.089.134.05.276-.034.419.05.363.015.776.334.987-.411.354-.562-.118-.64-.656-.205.162-.46.328-.778.495.208-.24.043-.333-.11-.453a2.7 2.7 0 0 0 .09.528l-.005-.006c.03.153.05.293.072.432.034-.024.07-.034.102-.069q-.001.01-.004.023c.154-.284.963.053.179.553-.185-.243-.218-.404-.19-.509-.01.061-.038.125-.056.188.369 1.192.81 2.355 1.254 3.518zm162.68-.167c-.113-.014-.094-.2.273-.201-.106.162-.21.209-.273.2m-7.713-.047c.292-.397-1.007-.691-.745-.983.913.27.365.503 1.231.579zm8.95-.35c-.23-.017-.156-.205-.124-.37.122.08.188.19.136.37zM-151.6 54.91c-.11-.072-.169-.172-.122-.333.11.072.169.172.122.333m1.172-.1-.197-.05.049-.19.194.05zm-.972-.21c-.109-.005-.1-.18.238-.18-.092.14-.18.183-.238.18m-6.949-.043c.263-.357-.907-.621-.67-.884.821.243.33.452 1.11.52zm8.066-.313c-.22-.01-.152-.184-.123-.334.11.072.17.173.123.334m179.71-.041-.217-.056.052-.21.219.057zm-19.562-.198-.718-.132.608-.02Zm-16.935-.486c-.308-.203-.474-.484-.343-.936.308.203.474.484.343.936m39.113-.255c.167-.091.384-.254.69-.248.044.242-.455.207-.69.248m-178.279-.192-.195-.05.048-.189.195.05q-.025.094-.048.19m-17.602-.177-.647-.119.546-.019zm37.758-.507c2.373-.048 4.525-1.337 6.059-4.447l3.694-7.493c2.453-4.977.242-8.37-3.751-10.337l-5.121-2.526c-1.187-.585-2.283-.334-2.64.39l-9.085 18.432c-.357.724.11 1.745 1.298 2.33l5.12 2.525c1.498.738 3.002 1.155 4.426 1.126m-19.245-.116c.277-.158.455-.223.595-.256l-.068-.234c-.273.092-.627.406-.527.49m151.03-.086-.522-.503.084-.001.52.5zm-151.569-.378c.317-.052.775-.187 1.028-.158l-.093-.331c-.332-.02-.695-.026-1.114.148-.312.362-.137.393.18.341m84.018-.054c2.65.14 5.192-1.004 6.974-4.619 1.626-3.298 1.385-6.099-.31-8.099 2.945.288 5.399-.377 7.407-4.45l.42-.854c3.172-6.435.733-10.523-3.868-12.791l-9.041-4.458c-1.712-.844-3.213-.47-3.715.548l-12.77 25.903c-.641 1.303.423 2.638 1.808 3.32l8.349 4.115c1.527.753 3.156 1.3 4.746 1.385m-105.736-.497-.47-.451.076-.003.468.451zm22.58-.196-.024-.08q-.064.032-.127.06c.053.019.1.01.15.02m182.598-.34c-.23-.016-.157-.205-.126-.37.122.08.189.191.138.37zm-180.864-.02-.16-.48-.101.062c.088.14.182.276.26.418m137.216-.355c-.053-.069-.096-.099-.073-.148l-.268-.401c.03-.19.257.362.341.549m.612-.214-.174-.118.043-.034a4 4 0 0 0-.269-.356c.112.059.261.192.4.508m.041-.152c-.012 0-.033-.023-.074-.091l.186-.03-.022.11c-.108-.19-.054.012-.09.01m-1.585-.142c-.053-.01-.136-.087-.175-.065.004-.149.116-.11.224-.016.001.068-.019.086-.049.08m1.079-.179a.3.3 0 0 1-.056-.075l.045.01a.2.2 0 0 1 .013.065zm.064-.035-.075-.032c-.01-.042-.016-.079.041-.01zm-135.636-.324c.008-.032.01-.06.018-.092.36.179.507.011.608-.236-.844.364.045-.263-.749-.101q.064.219.123.43m1.342-.233c.01-.004.013-.003.022-.006l-.001-.007zm-.665-.21.025-.083c-.024.005-.034.015-.06.02.029.015.035.039.035.064m134.924-.225c.04-.03.117-.067.294-.114a.64.64 0 0 0-.294 0zm.7-.246c.1-.035.101-.12.322-.047-.14-.01-.144.023-.322.047m.302-.455-.287-.012c-.063-.104.494-.257.143-.315.152.005.272-.1.349.017-.254.066-.277.23-.205.31m-.144-.327a.3.3 0 0 1-.058-.007zm-122.09.1c-.462 0-.951-.128-1.458-.377l-2.575-1.27 6.547-13.282 2.576 1.27c1.62.798 2.146 2.21 1.176 4.178l-3.692 7.494c-.667 1.353-1.557 1.984-2.574 1.986m121.721-.166c-.05-.001-.094-.016-.15-.024-.035-.038.095-.086.215-.07-.375.05.242.034.01.085a.3.3 0 0 1-.075.009m-.454-.375-.086-.14.007.133c.028.004.049 0 .079.007m.466-.1a.1.1 0 0 1-.044-.016c.01-.099.336-.096.527-.158.177.073-.264.173-.422.12-.003.026-.018.061-.061.054m-.387-.748.31-.095.06.02zm.63-.73-.204-.004.219-.128zm-.292-.115-.004-.112.101.018c.083.037-.099.057-.097.094m-.09-.184.058-.149c0 .012.034.01.07.007zm49.136-.11c-.32-.42.42-.267 0 0m-44.585-.042a.7.7 0 0 1-.054-.158c-.073-.074-.14-.152-.211-.227a.47.47 0 0 0-.375.114c.17.085.304.151.26-.019.12.094.253.193.38.29m-141.448-.078c.645-.03 1.218-.244 1.451-.717a.8.8 0 0 0 .1-.428l-.873-13.588a.84.84 0 0 1 .073-.444l3.672-7.45c.394-.798-.35-1.68-1.325-2.16-.947-.467-2.126-.533-2.52.265l-3.672 7.45c-.073.148-.174.281-.277.341l-11.34 7.569c-.131.119-.235.25-.28.34-.465.946.724 2.34 1.759 2.85.62.306 1.032.215 1.56-.186l8.707-6.33.312 10.776c.019.635.154 1.031.775 1.337a4.05 4.05 0 0 0 1.878.375m186.332-.139c-.319-.42.42-.268 0 0m-217.504-.007a.6.6 0 0 1-.049-.14q-.096-.102-.19-.204a.42.42 0 0 0-.337.1c.153.078.274.137.235-.015.108.084.226.172.34.259m110.19-.083a2.4 2.4 0 0 1-.998-.257l-4.276-2.108 2.79-5.661 4.277 2.108c1.546.762 1.616 2.57.934 3.955-.549 1.114-1.57 1.994-2.727 1.963m107.909-.874-.217-.055.054-.211.217.057zm-2.293-.014c.668-.64 1.389-1.41 1.643-2.15l-.503.045c-.193.89-.705 1.178-1.197 1.843.346-.521.635-1.08.944-1.618.197-.914-.163-.452-.621.046.093-.137.16-.273.127-.347.165.03 1.496-1.432.664-.016.41.199.773-.765 1.078-1.096-.072.334.333.01.425.179-.163.164-.4.328-.578.65.083.256.517-.137.665-.564-.068.597.664-.414.431.352-1.004 1.34-1.836 2.212-3.078 2.676m-217.25-.122c.029-.075.047-.145.08-.222a52 52 0 0 1-.995-1.376c-.03.01-.07.019-.105.028.028.073.06.152.107.249.288.448.596.888.914 1.321m171.892-.72q.023-.101.043-.201c-.047.013-.183-.004-.042-.043a.3.3 0 0 1 .047.02l.009-.033c-.168-.234-.339-.46-.506-.697-.035.01-.08.02-.118.03.032.08.069.17.12.278.14.219.299.43.447.646m-174.534-.075a1.5 1.5 0 0 1-.181-.536zm171.76-.23c.064-.137.132-.253.2-.362l-.034-.101.03.025.007.075.025-.04c-.012-.01-.02-.026-.033-.035-.016-.133-.023-.267-.035-.41-.054.282-.1.565-.16.848m46.997-.25c-.035-.002-.06-.04-.072-.132.265-.106.597-.626.758-.36-.19-.153-.532.505-.686.493m-5.013 0c.267-.009.494-.11.613-.352l5.527-11.212c.23-.465-.22-.988-.774-1.26-.534-.264-1.085-.321-1.642.069l-7.125 5.106 3.418-6.934c.23-.466-.22-.987-.774-1.26-.569-.28-1.24-.31-1.47.155L28.33 38.05c-.238.483.203.978.772 1.26.81.398 1.223.387 2.26-.367l6.501-4.791-3.419 6.933c-.238.482.212.961.78 1.242.277.136.584.223.85.215m-213.925-.058-.033-.098.025.023zm1.784-.284c.022-.02.045-.045.066-.063-.052-.075-.104-.157-.157-.234.019.084.045.175.09.297m172.343-.078c.025-.024.05-.051.075-.071-.06-.084-.117-.176-.176-.261.021.093.05.196.101.332m44.76-.027.171-.45c.074.008.143.08.27-.041zm-219.48-.14c-.463-.916-.67-1.045-1.131-2.187.527.806.687.995.876.838.497.745.071.823.256 1.35m173.059-.011q.045-.067.085-.137-.047-.066-.094-.133.002.136.009.27m48.35-1.178c-.044-.005-.082-.041-.111-.12.56-.68.53-.851 1.101-1.15.344-.735.542-1.296.553-1.704.156-.189.4-.112.572-.37-.034.059-.067.112-.1.181l.552.29c-.23.181-.268.434-.412.686.415-.292.813-.603 1.227-.921.361.646-.536 1.735-.59 2.32-.153-.841-.472.345-.255-1.004l-.808.355c-.126.364-.285.711-.435 1.066-.174-.084-.72.547-.583-.022.08-.078.237-.233.309-.392-.347-.077-.78.81-1.02.785m-220.913-.72c.252-.008 0-.85.324-.632-.094-.17-.18-.345-.268-.517-.02.003-.038.002-.059.013.006-.03.007-.069.012-.104q-.11-.208-.217-.419.011.064.023.129c-.09.212-.17.308-.237.384l.09.022-.047.189-.154-.04a.5.5 0 0 0-.031.129c.073.156.14.318.215.472zm92.375-.516c3.34-.068 6.37-1.882 8.528-6.26l5.319-10.793c3.454-7.005.341-11.779-5.28-14.55-5.62-2.77-11.261-2.311-14.714 4.695l-5.32 10.791c-3.453 7.005-.383 11.76 5.238 14.53 2.108 1.04 4.224 1.627 6.229 1.587m-92.252-.302-.048-.012.013-.048.047.013zm-2.174-.174c-.18-.018-.342-.678-.265-.535.085.157.189.423.32.518a.08.08 0 0 1-.055.017m1.324-.444a2 2 0 0 0-.08-.327l-.003.018a.5.5 0 0 1-.195-.072c.047.109.099.213.147.32.032.013.073.032.131.06zm-.332-.509a1 1 0 0 0 .157-.02.6.6 0 0 0-.198-.205c-.006.013-.015.022-.02.04l-.02-.002q.04.094.081.187m-.11-.593c.01 0 .02-.006.03-.006l.024-.095h.02c-.003-.452-.299-.967-.178-1.399.017-.009.028-.003.043-.007a25 25 0 0 1-.813-2.644q-.039-.011-.078-.02l.035-.141c-.047-.194-.08-.392-.123-.588-.1-.036-.098-.106-.022-.1l-.013-.065a.27.27 0 0 0-.221-.201.5.5 0 0 0 .139-.186q-.168-.896-.271-1.808a1.7 1.7 0 0 0-.205.3l.139.036-.048.189-.141-.037c.061.5.157 1.024.252 1.478-.307.296.236 1.773.55 2.883q.001-.016.005-.032c.197.097.22-.087.267-.233.06.394-.26.357-.12.874l-.001-.003q.015.081.025.154c.012-.008.026-.011.038-.023q-.001.004-.003.007c.055-.1.343.02.064.198-.066-.087-.079-.145-.069-.182-.004.021-.013.045-.019.068.132.424.29.838.447 1.252zm204.756-.111c.267-.008.495-.11.614-.352l5.527-11.21c.229-.466-.222-.988-.774-1.26-.569-.281-1.24-.311-1.47.154L24.01 35.94c-.238.483.212.962.78 1.242.277.136.582.222.849.214m19.456-.005c.051-.086.097-.2.127-.372.186-.344.098-.744-.05-.646.544-.629.261-.755.793-.668.412-.398.244-1.027-.146-.55.26-.423.523-.853.753-1.297-.056.29-.102.582-.176.867.514-.094.266-1.388.846-1.524-.164.515-.314 1.032-.492 1.54l.166-.032c-.27.303-.435 1-.46 1.259.082-.012.184.052.29-.216-.677 1.851-.893.231-1.651 1.64m-206.481-1.264c.78.127 1.582-.159 2.107-1.223l9.11-18.48c.393-.798-.379-1.694-1.324-2.16-.976-.48-2.125-.534-2.52.264l-6.267 12.715-.427-7.856c-.035-.752-.45-1.176-.923-1.41-.473-.232-1.032-.288-1.65.143l-6.548 4.71 6.385-12.951c.393-.798-.38-1.692-1.326-2.16-.976-.48-2.126-.532-2.52.266l-9.11 18.479c-.698 1.42-.001 2.388.975 2.87 1.39.684 2.157.695 3.993-.569l6.901-4.83.372 8.416c.116 2.226.62 2.84 2.01 3.526.244.12.502.208.762.25m206.504-.23c-.122-.08-.188-.192-.136-.37.122.08.188.191.136.37m-224.541-.117c-.154.005-.15-.467-.18-.617.257.096.073.443.27.573q-.053.044-.09.044m-1.214-.186-.096-.284c-.026-.004-.052-.006-.073.016q.093.132.169.268m.717-.814c-.107-.046-.031-.108.024-.094q.105-.301-.22-.358l.048-.189c.08.04.102-.012.122-.068.033.233.304.542.026.709m225.441-.14c-.02-.027-.038-.038-.029-.058l-.105-.16c.011-.075.101.144.134.218m.242-.085-.069-.046.018-.014a1.4 1.4 0 0 0-.107-.14c.044.023.103.075.158.2m-.158-.2-.03-.012c.003.01.006.022.005.025l-.005-.003-.002-.004-.014-.02-.003-.002.018.003v-.002c-.003-.015-.004-.028.018-.003zm.174.14c-.005 0-.013-.008-.03-.035l.074-.013-.007.044c-.043-.076-.023.005-.037.004m-.622-.055c-.021 0-.057-.036-.074-.027.002-.059.045-.042.088-.005 0 .023-.005.031-.014.032m-102.74-.013c-.571-.014-1.176-.194-1.812-.507l-4.074-2.007 4.015-8.146 4.074 2.008c2.037 1.004 2.696 2.747 1.41 5.353l-.32.652c-.94 1.904-2.037 2.676-3.293 2.647m76.204-.389c.322.004.614-.088.819-.309l8.677-9.208c.052-.06.094-.103.12-.155.263-.534-.352-1.332-.956-1.629-.379-.187-.732-.21-.98.075l-1.786 1.97-3.95-1.947.476-2.616c.075-.37-.159-.637-.538-.823-.604-.298-1.601-.32-1.873.233-.017.035-.034.113-.052.19L16.56 32.31c-.1.595.42 1.15 1.057 1.466.328.161.681.26 1.004.263m-198.77-.019c-.185-.024-.02-.462.178-.257l-.048.189c-.08-.04-.102.012-.122.068zm225.74-.057a.3.3 0 0 1 .116-.045.3.3 0 0 0-.117 0q0 .023.002.045m.277-.098c.04-.014.04-.047.126-.017-.055-.005-.056.008-.126.017m.12-.18-.114-.004c-.024-.041.194-.102.059-.125.059 0 .106-.038.136.007-.1.026-.11.09-.082.122m-227.482-.035c.024-.001.04-.035.05-.085l-.04.01c.016-.019.03-.027.047-.044.037-.227.007-.668.12-.303a26 26 0 0 1-.343-1.673c.004.824.278 1.194.066 1.985.044.079.076.11.1.11m227.408-.095-.006-.002q.007 0 .013.002zm-.14-.025c-.017-.002-.031-.007-.05-.01-.013-.014.038-.033.086-.027a.2.2 0 0 0-.048.01l.001.002c.013.004.066.008.07.014l-.001.002-.018.006a.1.1 0 0 1-.04.003m-.17-.148-.033-.056.003.053c.011.002.019 0 .03.003m.182-.04-.014-.006c.004-.039.132-.039.208-.063.07.028-.104.068-.167.047-.001.01-.007.026-.027.022m-.15-.296.123-.038.024.007zm-132.66-.102c-.648-.003-1.334-.188-2.048-.54-2.28-1.123-3-3.049-1.615-5.859l5.319-10.791c1.386-2.811 3.352-3.412 5.632-2.288 2.282 1.125 3.043 3.07 1.658 5.88l-5.32 10.793c-.953 1.931-2.198 2.81-3.626 2.805m-93.34-.085-.194-.05.048-.189.196.05zm226.168-.103.088-.051-.007.051zm-.034-.048-.001-.041.04.007c.008.004.007.009.005.012-.01.007-.04.013-.044.022m-.036-.069.023-.059c.002.004.015.004.028.003zm-.157-.987c.174-.365.396-.414.375-1.02-.114-.013-.17.1-.223.218a25 25 0 0 1-.152.802m-227.323-.08a.7.7 0 0 1 .04-.297 27 27 0 0 1-.196-1.583c-.044.24-.094.394-.19.25.09.55.216 1.093.346 1.63m200.8-.711 1.11-6.035 3 1.479zm-8.5-1.215c1.33.042 2.528-.586 3.372-2.3.978-1.982.54-3.528-.558-4.562l4.326-3.078a.5.5 0 0 0 .22-.233c.282-.569-.162-1.54-.817-1.863-.31-.153-.698-.108-1.04.152l-4.795 3.554-1.45-.715 2.22-4.502c.229-.465-.203-.98-.772-1.26-.552-.271-1.24-.309-1.47.156L4.263 26.207c-.18.362-.047.834.384 1.046l3.414 1.683c.847.418 1.694.685 2.492.71m-31.1-.035c2.874-.058 5.48-1.618 7.336-5.385l4.472-9.073c2.971-6.026.294-10.134-4.541-12.517L-19.481-.42c-1.437-.708-2.763-.403-3.195.473L-33.677 22.37c-.432.876.135 2.112 1.572 2.821l6.2 3.056c1.814.894 3.635 1.4 5.359 1.365m-161.735-.26c-.208-.014-.141-.184-.113-.332.11.072.17.172.123.333zm-.21-.357c-.288-.378.377-.24 0 0m73.609-.426c2.65.14 5.192-1.003 6.974-4.618 1.626-3.298 1.386-6.101-.31-8.101 2.946.288 5.399-.376 7.406-4.449l.422-.855c3.172-6.435.732-10.523-3.869-12.791l-9.041-4.456c-1.712-.844-3.213-.47-3.715.548l-12.769 25.902c-.643 1.303.423 2.637 1.808 3.32l8.348 4.116c1.527.753 3.156 1.3 4.746 1.384m119.008-1.292c-.342-.007-.709-.116-1.094-.306l-1.898-.936 1.812-3.674 1.897.936c1.12.553 1.615 1.375.943 2.738-.44.894-1.006 1.256-1.66 1.242m-192.52-.291c-.069-.007-.106-.087.069-.26.143.17.014.268-.069.26m.119-.449c-.2-.01-.033-.465.17-.257l-.049.189c-.079-.04-.101.012-.121.068m-.085-.55-.004-.602c.05.176.387-.103.21.139zm231.826-.646-.217-.056.054-.21.217.058zm-232.504-.137c-.032-.005-.066-.056-.094-.193.252-.195.188.21.094.193m183.62-.345c1.118.07 2.168-.41 2.923-1.941.697-1.414.605-2.619-.114-3.466 1.257.105 2.312-.21 3.162-1.935l.18-.363c1.325-2.69.301-4.396-1.649-5.357L1.428 9.994c-.604-.298-1.144-.157-1.323.205l-5.527 11.212c-.229.466.135.944.635 1.19l3.328 1.643c.673.331 1.369.572 2.04.614m-22.373-.92c-.56.001-1.153-.154-1.765-.456l-3.119-1.536 7.928-16.083 3.118 1.538c1.962.967 2.6 2.675 1.426 5.058l-4.473 9.074c-.807 1.637-1.884 2.401-3.115 2.405m71.373-.232c-.101-.136-.149-.207-.182-.394zm-229.86-.77c.103-.55.195-1.101.336-1.651.184-.716.404-1.412.646-2.095q-.075-.018-.152-.04.023-.093.047-.188l.17.044q.081-.225.167-.449c-.06-.035-.085-.114.072-.215.005.006.005.01.009.016l.108-.27a.5.5 0 0 0-.185.115l-.004.02-.014-.002a3 3 0 0 0-.303.325c.017-.02.082-.146.197-.353q-.038-.01-.076-.02l.048-.188.126.032q.16-.29.402-.7l-.024-.006-.038.006a.25.25 0 0 1-.137.061l-.018.049c.054.109.01.155-.05.155-.008.046 0 .082.041.114-.565.315-.393-.423-.077-1.163l.37-.035q.015-.083.027-.163l-.185-.048.048-.188.164.043q.03-.217.063-.423l-.022.001c-.116.188-.239.382-.378.598-.216.26-.461.571-.676.84a5 5 0 0 1-.217.626c.03.172-.077.611.064.586l-.44.155c-.109.583-.682 1.276-.46 1.474.338-.902.546-.589.798-.9l-.426.81.175.36c-.149.513-.247.952-.386 1.327-.036.683-.089 1.403.191 1.34zm.446-3.838.235-.438a1.5 1.5 0 0 1-.235.438M.13 22.388c-.25.003-.516-.06-.79-.196l-1.915-.945 1.444-2.931 1.932.952c.932.459 1.083 1.283.649 2.163-.304.617-.771.95-1.32.957m-37.797-.2c.822-.088 1.542-.852 1.957-1.693.639-1.296.595-2.71-.457-3.23l-9.39-4.627 2.92-5.92 5.255 2.589c1.05.518 2.147-.205 2.7-1.326.466-.946.528-2.308-.628-2.878l-5.255-2.59 2.936-5.957 9.39 4.628c1.052.518 2.2-.309 2.84-1.605.552-1.121.664-2.59-.492-3.16l-12.47-6.146c-1.193-.588-2.66-.615-3.213.507l-10.967 22.246c-.552 1.121.362 2.27 1.554 2.857l12.472 6.148c.289.142.574.187.848.158m85.582-.261c-.32-.421.42-.268 0 0m1.473-.261c-.25-.02.1-.382-.146-.404-.213-.286.468.121.245.398a.5.5 0 0 1-.099.006m-159.817-.025a2.4 2.4 0 0 1-.997-.256l-4.278-2.108 2.792-5.662 4.276 2.108c1.548.763 1.617 2.57.935 3.954-.55 1.114-1.57 1.996-2.728 1.964m158.669-.002c-.161-.013-.157-.52-.19-.684.285.107.08.49.298.635q-.063.053-.108.05m-.461-.083c-.203-.153-.251-.394-.164-.712.219.108.244-.097.298-.258.067.437-.288.397-.134.97m.753-.413c-.058-.002-.118-.127-.266-.132.067-.119.15-.653-.027-.343-.14-.07-.024-.285-.002-.447.212.238.172.62.355.874q-.032.051-.06.048m.276-.44-.218-.055.054-.21q.108.029.217.056zm-1.113-.174c-.117-.052-.032-.12.028-.104q.118-.335-.245-.4.027-.103.054-.208c.088.044.113-.014.135-.076.037.258.337.601.028.788m.435-.335c-.319-.421.42-.268 0 0m1.452-.295c-.205-.026-.022-.514.2-.285l-.054.21c-.088-.044-.113.013-.136.075zm-2.142-.215c-.206-.028-.022-.513.2-.286l-.055.21c-.087-.043-.112.013-.135.076zm1.283-.454c-.082-.043-.08-.133-.189-.161l.055-.21c.244.011.166.203.134.37m-.975-.25-.217-.056.08-.315.217.055zm-227.124-.112-.196-.05.05-.189.194.05zm228.425-.001-.217-.056.054-.21q.11.029.217.056zm-229.821-.22-.032-.157c.116-.191.245-.376.373-.56l.025.157c-.131.182-.248.37-.366.56m227.976-.255-.216-.056.054-.21q.109.029.217.056zm.3-.258c-.203-.02-.198-.157-.083-.133-.013-.141-.083-.251-.27-.293a.5.5 0 0 0 .188-.286c.07.23.176.437.164.712m1.089-.01c-.05-.007-.073-.108.048-.368.162.187.026.378-.048.368m-45.89-.337c-.316.005-.656-.091-1.017-.27l-1.95-.96L1.7 12.571l1.95.961c1.052.518 1.393 1.394.746 2.704l-.136.277c-.436.883-.955 1.263-1.558 1.273m-182.7-.516c-.11-.072-.17-.171-.123-.332.11.072.17.171.123.332m227.417-.61-.219-.058.055-.208.216.056zm.653-.295a37 37 0 0 0-.595-1.685c.214.557.42 1.117.595 1.685m-1.198-.293-.216-.056.055-.209.215.056zm-226.527-.215c-.083-.009-.103-.099.188-.26.063.186-.099.269-.188.26m226.392-.154-.217-.056.054-.21q.108.03.217.056zm-224.436-1.307.003-.001c-.002-.004.002-.012.001-.016l-.007.013zm-1.395-.042c-.03-.002-.064-.026-.1-.08.035.023.175-.262.168-.263.13.011.057.35-.068.343m1.581-.065q.433-.25.87-.48a.2.2 0 0 0 .037-.06c.01 0 .015.007.023.01q.113-.174.23-.346l-.158-.04.05-.19.196.052-.022.079c.185-.267.38-.525.574-.784-.126-.014-.248-.055-.313-.176q-.065.086-.132.179c.02.008.04.018.061.041l-.048.189c-.079-.039-.101.013-.121.069-.04-.002-.062-.025-.075-.053-.226.307-.454.62-.634.809-.154.295-.359.438-.575.57l-.067.105c.02-.019.028-.033.06-.054a.2.2 0 0 1 .044.08m-1.22-.605q-.1-.024-.197-.05l.049-.188q.097.024.195.05zm225.539-.625a48 48 0 0 0-.759-1.629c.277.533.52 1.08.759 1.629m-103.144-.08c.827-.101 1.56-.892 1.988-1.76.656-1.33.629-2.78-.422-3.299l-4.834-2.383 9.378-19.024c.553-1.122-.539-2.356-1.905-3.03s-3.008-.786-3.56.336L-65.07 2.844-69.904.461c-1.052-.518-2.217.345-2.873 1.676-.57 1.157-.7 2.658.456 3.228l15.135 7.462c.289.142.575.186.85.152m-119.372-.453c.08-.105.156-.214.236-.318 0-.004-.004-.002-.004-.006a1.4 1.4 0 0 0 .015-.171c-.098.067-.216.211-.315.417-.004.071.068.014.069.078zm-1.514-.665c-.288-.38.378-.241 0 0m222.772-.569c.004-.176-.16-.784-.405-.906l-.08.34c-.046-.4-.09-.81-.161-1.208.323.478.598.988.896 1.481zm-150.17-.051c-.571-.013-1.175-.193-1.81-.507l-4.075-2.008 4.015-8.145 4.073 2.009c2.037 1.004 2.697 2.746 1.412 5.352l-.32.65c-.94 1.905-2.039 2.679-3.295 2.649m-71.307-.936c-.1-.05-.018-.204-.147-.239.152-.233.413.191.147.239m.22-.107q1.033-1.2 2.196-2.259.026-.066.05-.132c-.18.17-.37.333-.543.512.099-.197.212-.385.322-.576-.834.73-1.65 1.664-2.026 2.455m2.218-.313.018-.006-.006-.006.01.006q.04-.015.081-.027-.011-.016 0-.016c-.014-.016-.022-.017-.032-.022l-.059.059zm217.984-.037c-.265.001-.615-.798-.705-.996l.623-.576c.41.823.01 1.03-.418.749.296.777.624.088.566.804a.13.13 0 0 1-.066.019m-217.768-.09.01-.011-.026-.016zm.014-.014q.013-.01.024-.022l-.043-.047-.032.03c.011.003.016-.003.051.039m.062-.059.02-.019-.052-.04-.006.007zm.192-.181.038-.035a1 1 0 0 0-.054-.05l-.02.02a.4.4 0 0 1 .036.065m.2-.19.06-.056-.02-.018-.075.035c.01.006.023.025.036.04zM43.841 7.594c-.128-.146-.346-.315-.451-.527.137-.133.357.3.451.527M-3.322 6.56A29 29 0 0 1-1.676 4.82l-.13-.034.088-.344c-.68.685-1.285 1.447-1.604 2.12m-136.77-.133.193-.584c-.522-.328-.95-.627-.978-.865-.016.065-.067.122-.226.074l-.13-.23-.31.584q.746.487 1.451 1.021m-32.918-.016c-.11-.071-.17-.172-.123-.333.11.072.169.172.123.333m172.153-.2.019-.007-.007-.004zm.022-.008.092-.028c-.008-.01-.01-.018 0-.016-.016-.018-.024-.019-.035-.025l-.066.065zm.217-.132.011-.012-.029-.017q.008.013.018.03m.016-.016.026-.025a1 1 0 0 1-.047-.051l-.035.035c.012.002.016-.006.056.041m.07-.066.022-.02-.059-.043-.005.005zm42.749-.105-.667-.613c.205.165.418.363.667.613m-.667-.613a18 18 0 0 0-.581-.416l.054-.025zm-.527-.44c-.242-.199-.472-.407-.724-.592.28-.157.587-.313 1.175.383zM-.32 5.786l.041-.038c-.02-.02-.04-.043-.058-.056l-.024.024q.027.039.041.07m-172.911-.136-.195-.05.048-.189.195.051zM-.097 5.577l.066-.063-.022-.02-.083.04c.01.008.025.026.04.043m-141.978-.512q.166-.103.326-.169h.001c.144-.06.287-.12.43-.22l-.176-.307.376.13c.035-.035.07-.06.106-.102-.247-.29-.694-.587-1.174-.832a9 9 0 0 1-.234.577c.159.073.347.151.612.243-.129.07-.508.11-.195.349-.183-.114-.367-.2-.55-.302q-.061.133-.123.265.303.181.6.368zm2.459-.066c.04-.115.073-.233.114-.347l-.432-.112.138-.53q.237.06.473.122.23-.632.472-1.257c-.17-.097-.241-.32.199-.602.014.017.013.026.025.042q.15-.38.306-.757c-.142.048-.305.135-.519.32l-.014.06q-.02-.003-.041-.01c-.233.212-.508.5-.851.912.047-.053.236-.405.558-.988l-.217-.055.138-.53q.175.044.351.092c.3-.537.676-1.203 1.128-1.969l-.064-.016-.107.019a.7.7 0 0 1-.387.173l-.05.133c.151.306.029.436-.14.437-.022.13 0 .234.114.322-1.585.884-1.104-1.186-.217-3.265l1.039-.097c.03-.157.052-.308.076-.46q-.26-.067-.52-.133l.138-.529.461.12c.055-.406.108-.8.177-1.188-.02.004-.044-.001-.064.002-.327.528-.672 1.076-1.062 1.681-.607.732-1.294 1.601-1.896 2.354q-.232.858-.612 1.762c.087.483-.212 1.711.186 1.642l-1.242.437a4.6 4.6 0 0 1-.183.668c.424.229.847.455 1.258.706l.533-.996c-.18.469-.343.783-.498 1.015.422.258.825.54 1.232.822zm-1.25-.412c-.033-.062-.092-.126-.146-.189l-.06.117zm-31.66-.061-.195-.05.05-.189.194.05zm212.45-.148-.117-.51.492.372c-.122.07-.24.137-.375.138m-.117-.51-.495-.374.423.07Zm-41.023.505c.113-.107.219-.22.334-.323l.057-.147q-.24.221-.477.448zm-.14-.036q.138-.254.284-.504c-.163.143-.323.299-.482.454zm-171.36-.041c-.287-.378.378-.241 0 0m29.113-.116.136-.231c-.248-.117-.497-.225-.747-.333l.059.28q.279.139.552.284m3.874-.434-.55-.14q.07-.265.137-.53l.55.142q-.068.264-.137.528m-3.48-.247.174-.302a3 3 0 0 0-.557-.157l-.055.084-.02-.088c-.046-.004-.102-.014-.134-.009.328.197.483.344.592.472m140.576-.054-.546-.141.138-.53.545.142zm40.659-.714c-.97-.745-2.584-1.476-2.644-1.973-.018.072-.074.135-.25.08L34.695.08l.697.243c-.415-.813-2.744-1.818-3.26-1.733 1.22.733.364.866 2.214 1.508-.142.078-.563.125-.216.39-1.918-1.198-3.862-1.73-5.975-2.8 1.906.093-1.073-.68-.378-1.053l.943.455-.043-.167q.601.188 1.187.422c-.325.158-.51.112-.539.384 1.598.44.598-.153 1.868-.032.58.244 1.157.491 1.718.776l-.106-.135c.143.071.194.13.225.192 1.9.94 3.696 2.076 5.35 3.382.789.85-.79.008-.355.82M34.13.487c.107.065.212.127.315.2-.147-.086-.243-.143-.315-.2M-2.975 2.512l-.548-.141.136-.53.55.14q-.07.265-.138.53m2.648-.162c-.12-.079-.188-.191-.136-.37.122.08.188.191.136.37m-162.948-.187c.148-.044.299-.082.449-.123l-.24-.06a1 1 0 0 0-.209.183m.813-.221q.562-.148 1.134-.27c.057-.04.107-.08.12-.118-.236-.135-1.044.157-1.254.388m12.674-.112c-.396-.286-.721-.627-1.48-.641.013.135.123.272.086.346q.698.128 1.394.295m69.778-.553c.793.015 1.508-.2 2.002-.718l17.088-18.14c.104-.124.207-.247.26-.352.638-1.296-.893-3.227-2.4-3.97-.875-.431-1.715-.497-2.287.136l-3.35 3.793-7.393-3.646.97-4.965c.152-.84-.41-1.466-1.288-1.898-1.507-.743-3.97-.78-4.608.516-.052.105-.085.263-.12.42l-4.019 24.583c-.219 1.416 1.064 2.789 2.677 3.583.806.397 1.675.643 2.468.658M.212.254-.005.2l.055-.21.216.056zM0 0c-.32-.42.42-.268 0 0m5.53-.468c.342-.417-.462-.063-.613-.147a24 24 0 0 1 1.601-.84c.06.135.291.206.318.344-.438.208-.881.408-1.306.643m.988-.988c-.043-.102.011-.243.35-.485.098.064.312.069.545.062-.305.128-.598.277-.895.423m-147.99.722c-.308-.203-.477-.482-.346-.934.308.202.477.483.346.934M-1.676-1.52a92 92 0 0 0-1.755-4.052A76 76 0 0 1-1.676-1.52m12.167-.85c.165-.049.332-.09.498-.136l-.265-.067c-.115.08-.186.145-.233.203m.904-.247q.626-.163 1.261-.298c.064-.045.118-.089.133-.132-.263-.15-1.16.174-1.394.43m14.084-.122c-.44-.318-.801-.698-1.643-.713.013.15.134.302.093.385q.774.142 1.55.328M-140.477-4.7c-.254-.01-.34-.263.502-.728.172.504-.249.737-.502.728m61.366-1.51 2.072-10.651 5.113 2.52zm75.364-.043q-.452-.964-.97-2.029c.345.667.656 1.348.97 2.029m-2.274-2.241q-.016.001-.04-.034l.083-.101c-.004.084-.018.135-.043.135m.041-.135c.011-.443-.4-1.982-1.018-2.291l-.205.86c-.116-1.011-.225-2.044-.407-3.051.817 1.209 1.512 2.496 2.263 3.742zm-129.033-.173.007-.004c-.006-.01.009-.03.006-.043l-.024.037zm-3.895-.117c-.093.004-.197-.062-.304-.233.087.096.495-.728.475-.73.356.03.165.947-.171.963m4.419-.183a67 67 0 0 1 2.442-1.345.45.45 0 0 0 .1-.171c.029.002.046.018.067.028.216-.324.426-.652.647-.972l-.442-.114.135-.529.55.14-.058.228a69 69 0 0 1 1.611-2.203c-.353-.041-.696-.154-.879-.494q-.181.241-.373.5a.5.5 0 0 1 .176.117l-.138.53c-.221-.109-.285.037-.34.194-.11-.006-.171-.068-.21-.148-.631.865-1.275 1.74-1.782 2.272-.432.828-1.004 1.226-1.61 1.598-.067.1-.128.195-.192.293.057-.051.08-.091.17-.151.073.087.102.159.126.227m31.273-1.245c.644-.015 1.189-.257 1.474-.835l9.464-19.2 7.988 3.938c1.052.519 2.163-.415 2.75-1.606.588-1.19.65-2.64-.402-3.16l-11.07-5.456c-1.19-.587-2.658-.615-3.21.507l-10.986 22.283c-.57 1.156.555 2.32 1.92 2.993.684.337 1.428.55 2.072.536m-34.7-.451-.549-.143.135-.53.55.142zM-8.64-12.28c-.671.004-1.557-2.012-1.783-2.514l1.575-1.456c1.033 2.08.024 2.602-1.059 1.891.749 1.964 1.578.224 1.433 2.032a.3.3 0 0 1-.166.047m-120.788-1.774c.223-.295.434-.6.66-.89-.001-.01-.008-.006-.01-.017.03-.202.038-.349.04-.483-.275.188-.607.592-.885 1.17-.012.198.193.04.195.22m-4.252-1.866c-.807-1.062 1.062-.678 0 0m123.385-2.055c-.322-.368-.877-.798-1.143-1.333.347-.336.905.76 1.143 1.333m-119.75-2.313c-.28-.141-.05-.574-.413-.67.427-.654 1.16.536.413.67m.617-.298a73 73 0 0 1 6.167-6.342q.07-.184.14-.37c-.51.476-1.04.933-1.524 1.436.279-.554.593-1.078.9-1.614-2.34 2.049-4.627 4.67-5.683 6.89m6.23-.883.047-.015-.018-.014zm.054-.016q.116-.038.233-.073c-.02-.028-.026-.047-.003-.044-.038-.045-.06-.048-.086-.063l-.167.164zm.548-.337.03-.03-.074-.046c.01.025.028.051.044.076m.044-.041.063-.061a2 2 0 0 1-.119-.13l-.089.087c.03.004.044-.015.145.104m.171-.164.056-.053-.146-.11-.015.015zm107.981-.267-1.684-1.545c.517.416 1.054.915 1.684 1.545m-107.442-.244.104-.097c-.05-.05-.102-.107-.149-.14l-.057.058q.067.1.102.179m.561-.532.167-.158-.055-.05q-.11.055-.21.1c.026.019.063.067.098.108m105.195-.769a41 41 0 0 0-1.466-1.05l.136-.065zm-1.33-1.115c-.612-.499-1.19-1.028-1.828-1.494.703-.398 1.482-.79 2.968.968zm-1.828-1.494c-.306.175-.605.346-.946.349l-.296-1.29zm-1.242-.94-1.251-.94 1.07.178zm-4.499-2.869c-2.45-1.882-6.528-3.73-6.68-4.984-.044.18-.186.34-.632.203l-1.097-1.917 1.759.615c-1.048-2.054-6.933-4.594-8.238-4.378 3.082 1.852.924 2.187 5.597 3.808-.36.196-1.425.317-.55.983-4.845-3.023-9.752-4.368-15.089-7.07 4.813.235-2.711-1.716-.956-2.662l2.383 1.152-.108-.418q1.518.473 2.998 1.062c-.82.4-1.29.283-1.362.97 4.036 1.114 1.51-.386 4.718-.081 1.465.615 2.924 1.242 4.342 1.963l-.27-.343c.361.179.487.33.566.486a76.6 76.6 0 0 1 13.519 8.542c1.989 2.148-1.999.022-.9 2.07m-96.874-.963c-.307-.201-.476-.483-.344-.935.307.203.476.483.344.935m-.621-2.135-.547-.14.137-.528.546.14zm88.454-2.065c-.372-.219-.615-.363-.798-.507.27.165.538.32.798.507m-86.472-1.093-.548-.14.136-.53.548.141zm-.536-.643c-.805-1.062 1.06-.678 0 0m13.965-1.188c.864-1.054-1.164-.156-1.545-.368a63 63 0 0 1 4.043-2.124c.149.345.735.522.803.87-1.107.526-2.227 1.03-3.3 1.622m2.498-2.492c-.11-.258.027-.612.883-1.224.249.16.792.175 1.379.158-.769.322-1.512.699-2.262 1.066m10.037-2.308c.417-.123.84-.23 1.258-.346l-.672-.168c-.29.202-.467.367-.586.514m2.284-.623a73 73 0 0 1 3.181-.754c.162-.111.3-.224.339-.334-.664-.378-2.93.44-3.52 1.088m35.575-.312c-1.111-.802-2.023-1.76-4.151-1.8.033.38.338.763.234.971q1.958.36 3.917.83" clip-path="url(#a)" style="fill:#fff;fill-opacity:1;fill-rule:nonzero;stroke:none" transform="matrix(1.33333 0 0 -1.33333 244.176 139.886)"/></svg>